<?xml version="1.0" encoding="utf-8" standalone="no"?>
<!DOCTYPE svg PUBLIC "-//W3C//DTD SVG 1.1//EN"
  "http://www.w3.org/Graphics/SVG/1.1/DTD/svg11.dtd">
<svg xmlns:xlink="http://www.w3.org/1999/xlink" width="230.4pt" height="151.2pt" viewBox="0 0 230.4 151.2" xmlns="http://www.w3.org/2000/svg" version="1.1">
 <metadata>
  <rdf:RDF xmlns:dc="http://purl.org/dc/elements/1.1/" xmlns:cc="http://creativecommons.org/ns#" xmlns:rdf="http://www.w3.org/1999/02/22-rdf-syntax-ns#">
   <cc:Work>
    <dc:type rdf:resource="http://purl.org/dc/dcmitype/StillImage"/>
    <dc:date>2025-10-14T16:38:18.084109</dc:date>
    <dc:format>image/svg+xml</dc:format>
    <dc:creator>
     <cc:Agent>
      <dc:title>Matplotlib v3.8.4, https://matplotlib.org/</dc:title>
     </cc:Agent>
    </dc:creator>
   </cc:Work>
  </rdf:RDF>
 </metadata>
 <defs>
  <style type="text/css">*{stroke-linejoin: round; stroke-linecap: butt}</style>
 </defs>
 <g id="figure_1">
  <g id="patch_1">
   <path d="M 0 151.2 
L 230.4 151.2 
L 230.4 0 
L 0 0 
z
" style="fill: #ffffff"/>
  </g>
  <g id="axes_1">
   <g id="patch_2">
    <path d="M 50.592 111.66 
L 222.4 111.66 
L 222.4 8 
L 50.592 8 
z
" style="fill: #ffffff"/>
   </g>
   <g id="line2d_1">
    <path d="M 58.401455 96.881987 
L 58.923826 94.86399 
L 59.968569 87.52174 
L 61.535684 76.173119 
L 62.580427 70.953185 
L 64.147542 64.966909 
L 64.669913 63.41572 
L 65.714656 61.294511 
L 66.759399 59.665285 
L 67.281771 58.618644 
L 67.804142 57.151216 
L 68.848885 52.786929 
L 72.505486 35.01021 
L 73.550229 30.735015 
L 74.072601 29.270315 
L 74.594972 28.434838 
L 75.117344 28.08509 
L 76.162087 27.824552 
L 76.684458 27.462129 
L 77.20683 26.662594 
L 77.729202 25.346678 
L 78.773945 21.971053 
L 79.296316 20.997197 
L 79.818688 22.103655 
L 80.341059 26.934187 
L 80.863431 36.131484 
L 82.952917 87.68089 
L 83.475289 95.068686 
L 83.99766 97.734666 
L 84.520032 96.80426 
L 85.564775 91.007437 
L 86.087146 88.155229 
L 86.609518 85.95009 
L 87.131889 84.507618 
L 87.654261 83.642263 
L 89.221375 81.87213 
L 89.743747 81.042278 
L 90.78849 78.767372 
L 92.355605 74.651803 
L 93.400348 71.410599 
L 94.967462 65.715187 
L 95.489834 63.338387 
L 96.012206 60.381384 
L 97.056949 52.698429 
L 98.101692 44.39393 
L 98.624063 40.950605 
L 99.146435 38.559734 
L 99.668806 37.340961 
L 100.191178 36.982493 
L 101.235921 37.089682 
L 101.758292 36.954622 
L 102.280664 36.436861 
L 102.803036 35.493433 
L 103.847779 32.826925 
L 105.937265 26.649253 
L 107.504379 21.817087 
L 108.026751 20.589586 
L 108.549123 19.846657 
L 109.071494 19.632406 
L 109.593866 19.829351 
L 110.116237 20.378335 
L 110.638609 21.588358 
L 111.16098 24.243893 
L 111.683352 29.19163 
L 112.205723 36.594287 
L 114.295209 72.847053 
L 114.817581 78.395721 
L 115.339953 81.393732 
L 115.862324 82.568923 
L 116.384696 82.84396 
L 116.907067 82.701818 
L 117.429439 82.154066 
L 117.95181 81.048151 
L 118.474182 79.360701 
L 120.041296 72.663618 
L 122.130783 64.05495 
L 123.175526 60.280618 
L 123.697897 58.801705 
L 124.220269 57.830656 
L 124.74264 57.384546 
L 125.265012 57.295608 
L 126.309755 57.271835 
L 126.832126 56.883415 
L 127.354498 55.980278 
L 127.87687 54.54714 
L 128.921613 50.773291 
L 131.011099 42.224621 
L 133.100585 33.487086 
L 134.145328 30.379494 
L 135.190071 28.092107 
L 136.234814 26.268905 
L 136.757186 25.665529 
L 137.279557 25.296232 
L 137.801929 25.129131 
L 138.3243 25.277635 
L 138.846672 26.264061 
L 139.369043 29.053871 
L 139.891415 34.49495 
L 140.936158 52.311636 
L 141.980901 72.043658 
L 142.503273 79.426901 
L 143.025644 83.668806 
L 143.548016 84.8184 
L 144.070387 83.91653 
L 145.11513 79.867341 
L 146.159874 74.595881 
L 147.726988 64.844798 
L 149.294103 55.414676 
L 150.861217 47.615712 
L 151.90596 43.401371 
L 152.428332 41.992749 
L 152.950704 41.077692 
L 153.995447 40.028845 
L 155.04019 39.288918 
L 156.084933 38.764675 
L 157.129676 38.291677 
L 157.652047 37.842759 
L 158.174419 36.983907 
L 158.696791 35.548843 
L 160.263905 29.433755 
L 160.786277 28.861646 
L 161.308648 31.227254 
L 161.83102 37.700072 
L 162.353391 47.988198 
L 163.920506 85.59363 
L 164.442877 94.373455 
L 164.965249 98.77109 
L 165.487621 99.119013 
L 166.009992 96.975175 
L 167.577107 88.32362 
L 168.099478 86.728212 
L 168.62185 85.948887 
L 169.144221 85.664764 
L 170.188964 85.408296 
L 170.711336 85.067253 
L 171.233708 84.449708 
L 172.278451 82.517157 
L 172.800822 81.236849 
L 173.323194 79.43834 
L 173.845565 76.604193 
L 174.367937 72.370287 
L 175.41268 60.663145 
L 176.457423 48.203221 
L 176.979794 42.962565 
L 177.502166 38.852338 
L 178.546909 33.251784 
L 180.636395 24.697033 
L 181.681138 20.89431 
L 182.20351 19.521928 
L 182.725881 19.564011 
L 183.248253 22.471748 
L 183.770625 29.184327 
L 184.815368 51.102724 
L 185.860111 74.46771 
L 186.382482 83.039195 
L 186.904854 88.181753 
L 187.427225 90.342944 
L 187.949597 90.769125 
L 188.471968 90.433261 
L 188.99434 89.606243 
L 189.516711 88.103731 
L 190.039083 85.751165 
L 191.083826 79.202244 
L 192.128569 72.434991 
L 192.650941 69.82747 
L 193.173312 68.056219 
L 193.695684 66.99842 
L 194.740427 65.833355 
L 198.397028 62.558258 
L 199.441771 62.046573 
L 201.531257 61.64445 
L 202.053628 61.140755 
L 202.576 60.260442 
L 203.620743 57.694417 
L 204.665486 54.606198 
L 205.710229 50.555611 
L 207.277344 42.889614 
L 211.456316 22.126637 
L 212.501059 18.571547 
L 213.545802 15.699727 
L 214.068174 14.539219 
L 214.590545 13.846352 
L 214.590545 13.846352 
" clip-path="url(#p06f212b38d)" style="fill: none; stroke-dasharray: 4.44,1.92; stroke-dashoffset: 0; stroke: #683d77; stroke-width: 1.2"/>
   </g>
   <g id="line2d_2">
    <defs>
     <path id="m7da17aae53" d="M -1.75 1.75 
L 1.75 -1.75 
M -1.75 -1.75 
L 1.75 1.75 
" style="stroke: #000000; stroke-width: 0.8"/>
    </defs>
    <g clip-path="url(#p06f212b38d)">
     <use xlink:href="#m7da17aae53" x="58.401455" y="100.187385" style="stroke: #000000; stroke-width: 0.8"/>
     <use xlink:href="#m7da17aae53" x="61.525236" y="74.987475" style="stroke: #000000; stroke-width: 0.8"/>
     <use xlink:href="#m7da17aae53" x="64.649018" y="62.694865" style="stroke: #000000; stroke-width: 0.8"/>
     <use xlink:href="#m7da17aae53" x="67.7728" y="58.392827" style="stroke: #000000; stroke-width: 0.8"/>
     <use xlink:href="#m7da17aae53" x="70.896582" y="42.412474" style="stroke: #000000; stroke-width: 0.8"/>
     <use xlink:href="#m7da17aae53" x="74.020364" y="27.968449" style="stroke: #000000; stroke-width: 0.8"/>
     <use xlink:href="#m7da17aae53" x="77.144145" y="27.968449" style="stroke: #000000; stroke-width: 0.8"/>
     <use xlink:href="#m7da17aae53" x="80.267927" y="15.983184" style="stroke: #000000; stroke-width: 0.8"/>
     <use xlink:href="#m7da17aae53" x="83.391709" y="105.104113" style="stroke: #000000; stroke-width: 0.8"/>
     <use xlink:href="#m7da17aae53" x="86.515491" y="84.514376" style="stroke: #000000; stroke-width: 0.8"/>
     <use xlink:href="#m7da17aae53" x="89.639273" y="81.748272" style="stroke: #000000; stroke-width: 0.8"/>
     <use xlink:href="#m7da17aae53" x="92.763055" y="73.758491" style="stroke: #000000; stroke-width: 0.8"/>
     <use xlink:href="#m7da17aae53" x="95.886836" y="62.694865" style="stroke: #000000; stroke-width: 0.8"/>
     <use xlink:href="#m7da17aae53" x="99.010618" y="36.265971" style="stroke: #000000; stroke-width: 0.8"/>
     <use xlink:href="#m7da17aae53" x="102.1344" y="37.649023" style="stroke: #000000; stroke-width: 0.8"/>
     <use xlink:href="#m7da17aae53" x="105.258182" y="28.890484" style="stroke: #000000; stroke-width: 0.8"/>
     <use xlink:href="#m7da17aae53" x="108.381964" y="18.749288" style="stroke: #000000; stroke-width: 0.8"/>
     <use xlink:href="#m7da17aae53" x="111.505745" y="21.207652" style="stroke: #000000; stroke-width: 0.8"/>
     <use xlink:href="#m7da17aae53" x="114.629527" y="82.977652" style="stroke: #000000; stroke-width: 0.8"/>
     <use xlink:href="#m7da17aae53" x="117.753309" y="82.977652" style="stroke: #000000; stroke-width: 0.8"/>
     <use xlink:href="#m7da17aae53" x="120.877091" y="68.841368" style="stroke: #000000; stroke-width: 0.8"/>
     <use xlink:href="#m7da17aae53" x="124.000873" y="56.856103" style="stroke: #000000; stroke-width: 0.8"/>
     <use xlink:href="#m7da17aae53" x="127.124655" y="57.778137" style="stroke: #000000; stroke-width: 0.8"/>
     <use xlink:href="#m7da17aae53" x="130.248436" y="45.6392" style="stroke: #000000; stroke-width: 0.8"/>
     <use xlink:href="#m7da17aae53" x="133.372218" y="31.809865" style="stroke: #000000; stroke-width: 0.8"/>
     <use xlink:href="#m7da17aae53" x="136.496" y="25.356413" style="stroke: #000000; stroke-width: 0.8"/>
     <use xlink:href="#m7da17aae53" x="139.619782" y="24.588051" style="stroke: #000000; stroke-width: 0.8"/>
     <use xlink:href="#m7da17aae53" x="142.743564" y="89.738449" style="stroke: #000000; stroke-width: 0.8"/>
     <use xlink:href="#m7da17aae53" x="145.867345" y="76.985217" style="stroke: #000000; stroke-width: 0.8"/>
     <use xlink:href="#m7da17aae53" x="148.991127" y="56.548758" style="stroke: #000000; stroke-width: 0.8"/>
     <use xlink:href="#m7da17aae53" x="152.114909" y="41.490439" style="stroke: #000000; stroke-width: 0.8"/>
     <use xlink:href="#m7da17aae53" x="155.238691" y="39.03168" style="stroke: #000000; stroke-width: 0.8"/>
     <use xlink:href="#m7da17aae53" x="158.362473" y="37.956368" style="stroke: #000000; stroke-width: 0.8"/>
     <use xlink:href="#m7da17aae53" x="161.486255" y="22.898049" style="stroke: #000000; stroke-width: 0.8"/>
     <use xlink:href="#m7da17aae53" x="164.610036" y="106.948182" style="stroke: #000000; stroke-width: 0.8"/>
     <use xlink:href="#m7da17aae53" x="167.733818" y="85.589688" style="stroke: #000000; stroke-width: 0.8"/>
     <use xlink:href="#m7da17aae53" x="170.8576" y="85.589688" style="stroke: #000000; stroke-width: 0.8"/>
     <use xlink:href="#m7da17aae53" x="173.981382" y="78.982563" style="stroke: #000000; stroke-width: 0.8"/>
     <use xlink:href="#m7da17aae53" x="177.105164" y="39.185352" style="stroke: #000000; stroke-width: 0.8"/>
     <use xlink:href="#m7da17aae53" x="180.228945" y="26.124775" style="stroke: #000000; stroke-width: 0.8"/>
     <use xlink:href="#m7da17aae53" x="183.352727" y="14.600528" style="stroke: #000000; stroke-width: 0.8"/>
     <use xlink:href="#m7da17aae53" x="186.476509" y="92.197208" style="stroke: #000000; stroke-width: 0.8"/>
     <use xlink:href="#m7da17aae53" x="189.600291" y="89.738449" style="stroke: #000000; stroke-width: 0.8"/>
     <use xlink:href="#m7da17aae53" x="192.724073" y="67.611988" style="stroke: #000000; stroke-width: 0.8"/>
     <use xlink:href="#m7da17aae53" x="195.847855" y="64.846279" style="stroke: #000000; stroke-width: 0.8"/>
     <use xlink:href="#m7da17aae53" x="198.971636" y="61.926898" style="stroke: #000000; stroke-width: 0.8"/>
     <use xlink:href="#m7da17aae53" x="202.095418" y="61.926898" style="stroke: #000000; stroke-width: 0.8"/>
     <use xlink:href="#m7da17aae53" x="205.2192" y="53.322031" style="stroke: #000000; stroke-width: 0.8"/>
     <use xlink:href="#m7da17aae53" x="208.342982" y="37.495351" style="stroke: #000000; stroke-width: 0.8"/>
     <use xlink:href="#m7da17aae53" x="211.466764" y="21.361325" style="stroke: #000000; stroke-width: 0.8"/>
     <use xlink:href="#m7da17aae53" x="214.590545" y="12.711818" style="stroke: #000000; stroke-width: 0.8"/>
    </g>
   </g>
   <g id="patch_3">
    <path d="M 50.592 111.66 
L 50.592 8 
" style="fill: none; stroke: #000000; stroke-linejoin: miter; stroke-linecap: square"/>
   </g>
   <g id="patch_4">
    <path d="M 222.4 111.66 
L 222.4 8 
" style="fill: none; stroke: #000000; stroke-linejoin: miter; stroke-linecap: square"/>
   </g>
   <g id="patch_5">
    <path d="M 50.592 111.66 
L 222.4 111.66 
" style="fill: none; stroke: #000000; stroke-linejoin: miter; stroke-linecap: square"/>
   </g>
   <g id="patch_6">
    <path d="M 50.592 8 
L 222.4 8 
" style="fill: none; stroke: #000000; stroke-linejoin: miter; stroke-linecap: square"/>
   </g>
   <g id="matplotlib.axis_1">
    <g id="xtick_1">
     <g id="line2d_3">
      <defs>
       <path id="md4564a173c" d="M 0 0 
L 0 3.5 
" style="stroke: #000000; stroke-width: 0.8"/>
      </defs>
      <g>
       <use xlink:href="#md4564a173c" x="55.277673" y="111.66" style="stroke: #000000; stroke-width: 0.8"/>
      </g>
     </g>
     <g id="text_1">
      <!-- 0 -->
      <g transform="translate(52.497204 125.817813) scale(0.1 -0.1)">
       <defs>
        <path id="ArialMT-30" d="M 266 2259 
Q 266 3072 433 3567 
Q 600 4063 929 4331 
Q 1259 4600 1759 4600 
Q 2128 4600 2406 4451 
Q 2684 4303 2865 4023 
Q 3047 3744 3150 3342 
Q 3253 2941 3253 2259 
Q 3253 1453 3087 958 
Q 2922 463 2592 192 
Q 2263 -78 1759 -78 
Q 1097 -78 719 397 
Q 266 969 266 2259 
z
M 844 2259 
Q 844 1131 1108 757 
Q 1372 384 1759 384 
Q 2147 384 2411 759 
Q 2675 1134 2675 2259 
Q 2675 3391 2411 3762 
Q 2147 4134 1753 4134 
Q 1366 4134 1134 3806 
Q 844 3388 844 2259 
z
" transform="scale(0.015625)"/>
       </defs>
       <use xlink:href="#ArialMT-30"/>
      </g>
     </g>
    </g>
    <g id="xtick_2">
     <g id="line2d_4">
      <g>
       <use xlink:href="#md4564a173c" x="117.753309" y="111.66" style="stroke: #000000; stroke-width: 0.8"/>
      </g>
     </g>
     <g id="text_2">
      <!-- 20 -->
      <g transform="translate(112.192372 125.817813) scale(0.1 -0.1)">
       <defs>
        <path id="ArialMT-32" d="M 3222 541 
L 3222 0 
L 194 0 
Q 188 203 259 391 
Q 375 700 629 1000 
Q 884 1300 1366 1694 
Q 2113 2306 2375 2664 
Q 2638 3022 2638 3341 
Q 2638 3675 2398 3904 
Q 2159 4134 1775 4134 
Q 1369 4134 1125 3890 
Q 881 3647 878 3216 
L 300 3275 
Q 359 3922 746 4261 
Q 1134 4600 1788 4600 
Q 2447 4600 2831 4234 
Q 3216 3869 3216 3328 
Q 3216 3053 3103 2787 
Q 2991 2522 2730 2228 
Q 2469 1934 1863 1422 
Q 1356 997 1212 845 
Q 1069 694 975 541 
L 3222 541 
z
" transform="scale(0.015625)"/>
       </defs>
       <use xlink:href="#ArialMT-32"/>
       <use xlink:href="#ArialMT-30" x="55.615234"/>
      </g>
     </g>
    </g>
    <g id="xtick_3">
     <g id="line2d_5">
      <g>
       <use xlink:href="#md4564a173c" x="180.228945" y="111.66" style="stroke: #000000; stroke-width: 0.8"/>
      </g>
     </g>
     <g id="text_3">
      <!-- 40 -->
      <g transform="translate(174.668008 125.817813) scale(0.1 -0.1)">
       <defs>
        <path id="ArialMT-34" d="M 2069 0 
L 2069 1097 
L 81 1097 
L 81 1613 
L 2172 4581 
L 2631 4581 
L 2631 1613 
L 3250 1613 
L 3250 1097 
L 2631 1097 
L 2631 0 
L 2069 0 
z
M 2069 1613 
L 2069 3678 
L 634 1613 
L 2069 1613 
z
" transform="scale(0.015625)"/>
       </defs>
       <use xlink:href="#ArialMT-34"/>
       <use xlink:href="#ArialMT-30" x="55.615234"/>
      </g>
     </g>
    </g>
    <g id="text_4">
     <!-- Time (s) -->
     <g transform="translate(112.912172 138.768906) scale(0.13 -0.13)">
      <defs>
       <path id="ArialMT-54" d="M 1659 0 
L 1659 4041 
L 150 4041 
L 150 4581 
L 3781 4581 
L 3781 4041 
L 2266 4041 
L 2266 0 
L 1659 0 
z
" transform="scale(0.015625)"/>
       <path id="ArialMT-69" d="M 425 3934 
L 425 4581 
L 988 4581 
L 988 3934 
L 425 3934 
z
M 425 0 
L 425 3319 
L 988 3319 
L 988 0 
L 425 0 
z
" transform="scale(0.015625)"/>
       <path id="ArialMT-6d" d="M 422 0 
L 422 3319 
L 925 3319 
L 925 2853 
Q 1081 3097 1340 3245 
Q 1600 3394 1931 3394 
Q 2300 3394 2536 3241 
Q 2772 3088 2869 2813 
Q 3263 3394 3894 3394 
Q 4388 3394 4653 3120 
Q 4919 2847 4919 2278 
L 4919 0 
L 4359 0 
L 4359 2091 
Q 4359 2428 4304 2576 
Q 4250 2725 4106 2815 
Q 3963 2906 3769 2906 
Q 3419 2906 3187 2673 
Q 2956 2441 2956 1928 
L 2956 0 
L 2394 0 
L 2394 2156 
Q 2394 2531 2256 2718 
Q 2119 2906 1806 2906 
Q 1569 2906 1367 2781 
Q 1166 2656 1075 2415 
Q 984 2175 984 1722 
L 984 0 
L 422 0 
z
" transform="scale(0.015625)"/>
       <path id="ArialMT-65" d="M 2694 1069 
L 3275 997 
Q 3138 488 2766 206 
Q 2394 -75 1816 -75 
Q 1088 -75 661 373 
Q 234 822 234 1631 
Q 234 2469 665 2931 
Q 1097 3394 1784 3394 
Q 2450 3394 2872 2941 
Q 3294 2488 3294 1666 
Q 3294 1616 3291 1516 
L 816 1516 
Q 847 969 1125 678 
Q 1403 388 1819 388 
Q 2128 388 2347 550 
Q 2566 713 2694 1069 
z
M 847 1978 
L 2700 1978 
Q 2663 2397 2488 2606 
Q 2219 2931 1791 2931 
Q 1403 2931 1139 2672 
Q 875 2413 847 1978 
z
" transform="scale(0.015625)"/>
       <path id="ArialMT-20" transform="scale(0.015625)"/>
       <path id="ArialMT-28" d="M 1497 -1347 
Q 1031 -759 709 28 
Q 388 816 388 1659 
Q 388 2403 628 3084 
Q 909 3875 1497 4659 
L 1900 4659 
Q 1522 4009 1400 3731 
Q 1209 3300 1100 2831 
Q 966 2247 966 1656 
Q 966 153 1900 -1347 
L 1497 -1347 
z
" transform="scale(0.015625)"/>
       <path id="ArialMT-73" d="M 197 991 
L 753 1078 
Q 800 744 1014 566 
Q 1228 388 1613 388 
Q 2000 388 2187 545 
Q 2375 703 2375 916 
Q 2375 1106 2209 1216 
Q 2094 1291 1634 1406 
Q 1016 1563 777 1677 
Q 538 1791 414 1992 
Q 291 2194 291 2438 
Q 291 2659 392 2848 
Q 494 3038 669 3163 
Q 800 3259 1026 3326 
Q 1253 3394 1513 3394 
Q 1903 3394 2198 3281 
Q 2494 3169 2634 2976 
Q 2775 2784 2828 2463 
L 2278 2388 
Q 2241 2644 2061 2787 
Q 1881 2931 1553 2931 
Q 1166 2931 1000 2803 
Q 834 2675 834 2503 
Q 834 2394 903 2306 
Q 972 2216 1119 2156 
Q 1203 2125 1616 2013 
Q 2213 1853 2448 1751 
Q 2684 1650 2818 1456 
Q 2953 1263 2953 975 
Q 2953 694 2789 445 
Q 2625 197 2315 61 
Q 2006 -75 1616 -75 
Q 969 -75 630 194 
Q 291 463 197 991 
z
" transform="scale(0.015625)"/>
       <path id="ArialMT-29" d="M 791 -1347 
L 388 -1347 
Q 1322 153 1322 1656 
Q 1322 2244 1188 2822 
Q 1081 3291 891 3722 
Q 769 4003 388 4659 
L 791 4659 
Q 1378 3875 1659 3084 
Q 1900 2403 1900 1659 
Q 1900 816 1576 28 
Q 1253 -759 791 -1347 
z
" transform="scale(0.015625)"/>
      </defs>
      <use xlink:href="#ArialMT-54"/>
      <use xlink:href="#ArialMT-69" x="57.333984"/>
      <use xlink:href="#ArialMT-6d" x="79.550781"/>
      <use xlink:href="#ArialMT-65" x="162.851562"/>
      <use xlink:href="#ArialMT-20" x="218.466797"/>
      <use xlink:href="#ArialMT-28" x="246.25"/>
      <use xlink:href="#ArialMT-73" x="279.550781"/>
      <use xlink:href="#ArialMT-29" x="329.550781"/>
     </g>
    </g>
   </g>
   <g id="matplotlib.axis_2">
    <g id="ytick_1">
     <g id="line2d_6">
      <defs>
       <path id="m8ff2a908c7" d="M 0 0 
L -3.5 0 
" style="stroke: #000000; stroke-width: 0.8"/>
      </defs>
      <g>
       <use xlink:href="#m8ff2a908c7" x="50.592" y="106.948182" style="stroke: #000000; stroke-width: 0.8"/>
      </g>
     </g>
     <g id="text_5">
      <!-- 0 -->
      <g transform="translate(38.031062 110.527088) scale(0.1 -0.1)">
       <use xlink:href="#ArialMT-30"/>
      </g>
     </g>
    </g>
    <g id="ytick_2">
     <g id="line2d_7">
      <g>
       <use xlink:href="#m8ff2a908c7" x="50.592" y="67.443699" style="stroke: #000000; stroke-width: 0.8"/>
      </g>
     </g>
     <g id="text_6">
      <!-- 100 -->
      <g transform="translate(26.909187 71.022605) scale(0.1 -0.1)">
       <defs>
        <path id="ArialMT-31" d="M 2384 0 
L 1822 0 
L 1822 3584 
Q 1619 3391 1289 3197 
Q 959 3003 697 2906 
L 697 3450 
Q 1169 3672 1522 3987 
Q 1875 4303 2022 4600 
L 2384 4600 
L 2384 0 
z
" transform="scale(0.015625)"/>
       </defs>
       <use xlink:href="#ArialMT-31"/>
       <use xlink:href="#ArialMT-30" x="55.615234"/>
       <use xlink:href="#ArialMT-30" x="111.230469"/>
      </g>
     </g>
    </g>
    <g id="ytick_3">
     <g id="line2d_8">
      <g>
       <use xlink:href="#m8ff2a908c7" x="50.592" y="27.939216" style="stroke: #000000; stroke-width: 0.8"/>
      </g>
     </g>
     <g id="text_7">
      <!-- 200 -->
      <g transform="translate(26.909187 31.518122) scale(0.1 -0.1)">
       <use xlink:href="#ArialMT-32"/>
       <use xlink:href="#ArialMT-30" x="55.615234"/>
       <use xlink:href="#ArialMT-30" x="111.230469"/>
      </g>
     </g>
    </g>
    <g id="text_8">
     <!-- Cluster area ($\mu$m$^2$) -->
     <g transform="translate(22.549187 114.105) rotate(-90) scale(0.13 -0.13)">
      <defs>
       <path id="ArialMT-43" d="M 3763 1606 
L 4369 1453 
Q 4178 706 3683 314 
Q 3188 -78 2472 -78 
Q 1731 -78 1267 223 
Q 803 525 561 1097 
Q 319 1669 319 2325 
Q 319 3041 592 3573 
Q 866 4106 1370 4382 
Q 1875 4659 2481 4659 
Q 3169 4659 3637 4309 
Q 4106 3959 4291 3325 
L 3694 3184 
Q 3534 3684 3231 3912 
Q 2928 4141 2469 4141 
Q 1941 4141 1586 3887 
Q 1231 3634 1087 3207 
Q 944 2781 944 2328 
Q 944 1744 1114 1308 
Q 1284 872 1643 656 
Q 2003 441 2422 441 
Q 2931 441 3284 734 
Q 3638 1028 3763 1606 
z
" transform="scale(0.015625)"/>
       <path id="ArialMT-6c" d="M 409 0 
L 409 4581 
L 972 4581 
L 972 0 
L 409 0 
z
" transform="scale(0.015625)"/>
       <path id="ArialMT-75" d="M 2597 0 
L 2597 488 
Q 2209 -75 1544 -75 
Q 1250 -75 995 37 
Q 741 150 617 320 
Q 494 491 444 738 
Q 409 903 409 1263 
L 409 3319 
L 972 3319 
L 972 1478 
Q 972 1038 1006 884 
Q 1059 663 1231 536 
Q 1403 409 1656 409 
Q 1909 409 2131 539 
Q 2353 669 2445 892 
Q 2538 1116 2538 1541 
L 2538 3319 
L 3100 3319 
L 3100 0 
L 2597 0 
z
" transform="scale(0.015625)"/>
       <path id="ArialMT-74" d="M 1650 503 
L 1731 6 
Q 1494 -44 1306 -44 
Q 1000 -44 831 53 
Q 663 150 594 308 
Q 525 466 525 972 
L 525 2881 
L 113 2881 
L 113 3319 
L 525 3319 
L 525 4141 
L 1084 4478 
L 1084 3319 
L 1650 3319 
L 1650 2881 
L 1084 2881 
L 1084 941 
Q 1084 700 1114 631 
Q 1144 563 1211 522 
Q 1278 481 1403 481 
Q 1497 481 1650 503 
z
" transform="scale(0.015625)"/>
       <path id="ArialMT-72" d="M 416 0 
L 416 3319 
L 922 3319 
L 922 2816 
Q 1116 3169 1280 3281 
Q 1444 3394 1641 3394 
Q 1925 3394 2219 3213 
L 2025 2691 
Q 1819 2813 1613 2813 
Q 1428 2813 1281 2702 
Q 1134 2591 1072 2394 
Q 978 2094 978 1738 
L 978 0 
L 416 0 
z
" transform="scale(0.015625)"/>
       <path id="ArialMT-61" d="M 2588 409 
Q 2275 144 1986 34 
Q 1697 -75 1366 -75 
Q 819 -75 525 192 
Q 231 459 231 875 
Q 231 1119 342 1320 
Q 453 1522 633 1644 
Q 813 1766 1038 1828 
Q 1203 1872 1538 1913 
Q 2219 1994 2541 2106 
Q 2544 2222 2544 2253 
Q 2544 2597 2384 2738 
Q 2169 2928 1744 2928 
Q 1347 2928 1158 2789 
Q 969 2650 878 2297 
L 328 2372 
Q 403 2725 575 2942 
Q 747 3159 1072 3276 
Q 1397 3394 1825 3394 
Q 2250 3394 2515 3294 
Q 2781 3194 2906 3042 
Q 3031 2891 3081 2659 
Q 3109 2516 3109 2141 
L 3109 1391 
Q 3109 606 3145 398 
Q 3181 191 3288 0 
L 2700 0 
Q 2613 175 2588 409 
z
M 2541 1666 
Q 2234 1541 1622 1453 
Q 1275 1403 1131 1340 
Q 988 1278 909 1158 
Q 831 1038 831 891 
Q 831 666 1001 516 
Q 1172 366 1500 366 
Q 1825 366 2078 508 
Q 2331 650 2450 897 
Q 2541 1088 2541 1459 
L 2541 1666 
z
" transform="scale(0.015625)"/>
       <path id="DejaVuSans-Oblique-3bc" d="M -84 -1331 
L 856 3500 
L 1434 3500 
L 1009 1322 
Q 997 1256 987 1175 
Q 978 1094 978 1013 
Q 978 722 1161 565 
Q 1344 409 1684 409 
Q 2147 409 2431 671 
Q 2716 934 2816 1459 
L 3213 3500 
L 3788 3500 
L 3266 809 
Q 3253 750 3248 706 
Q 3244 663 3244 628 
Q 3244 531 3283 486 
Q 3322 441 3406 441 
Q 3438 441 3492 456 
Q 3547 472 3647 513 
L 3559 50 
Q 3422 -19 3297 -55 
Q 3172 -91 3053 -91 
Q 2847 -91 2730 40 
Q 2613 172 2613 403 
Q 2438 153 2195 31 
Q 1953 -91 1625 -91 
Q 1334 -91 1117 43 
Q 900 178 831 397 
L 494 -1331 
L -84 -1331 
z
" transform="scale(0.015625)"/>
       <path id="DejaVuSans-32" d="M 1228 531 
L 3431 531 
L 3431 0 
L 469 0 
L 469 531 
Q 828 903 1448 1529 
Q 2069 2156 2228 2338 
Q 2531 2678 2651 2914 
Q 2772 3150 2772 3378 
Q 2772 3750 2511 3984 
Q 2250 4219 1831 4219 
Q 1534 4219 1204 4116 
Q 875 4013 500 3803 
L 500 4441 
Q 881 4594 1212 4672 
Q 1544 4750 1819 4750 
Q 2544 4750 2975 4387 
Q 3406 4025 3406 3419 
Q 3406 3131 3298 2873 
Q 3191 2616 2906 2266 
Q 2828 2175 2409 1742 
Q 1991 1309 1228 531 
z
" transform="scale(0.015625)"/>
      </defs>
      <use xlink:href="#ArialMT-43" transform="translate(0 0.765625)"/>
      <use xlink:href="#ArialMT-6c" transform="translate(72.216797 0.765625)"/>
      <use xlink:href="#ArialMT-75" transform="translate(94.433594 0.765625)"/>
      <use xlink:href="#ArialMT-73" transform="translate(150.048828 0.765625)"/>
      <use xlink:href="#ArialMT-74" transform="translate(200.048828 0.765625)"/>
      <use xlink:href="#ArialMT-65" transform="translate(227.832031 0.765625)"/>
      <use xlink:href="#ArialMT-72" transform="translate(283.447266 0.765625)"/>
      <use xlink:href="#ArialMT-20" transform="translate(316.748047 0.765625)"/>
      <use xlink:href="#ArialMT-61" transform="translate(344.53125 0.765625)"/>
      <use xlink:href="#ArialMT-72" transform="translate(400.146484 0.765625)"/>
      <use xlink:href="#ArialMT-65" transform="translate(433.447266 0.765625)"/>
      <use xlink:href="#ArialMT-61" transform="translate(489.0625 0.765625)"/>
      <use xlink:href="#ArialMT-20" transform="translate(544.677734 0.765625)"/>
      <use xlink:href="#ArialMT-28" transform="translate(572.460938 0.765625)"/>
      <use xlink:href="#DejaVuSans-Oblique-3bc" transform="translate(605.761719 0.765625)"/>
      <use xlink:href="#ArialMT-6d" transform="translate(669.384766 0.765625)"/>
      <use xlink:href="#DejaVuSans-32" transform="translate(753.642578 39.046875) scale(0.7)"/>
      <use xlink:href="#ArialMT-29" transform="translate(800.913086 0.765625)"/>
     </g>
    </g>
   </g>
   <g id="legend_1">
    <g id="line2d_9">
     <path d="M 186.53125 17.57625 
L 190.73125 17.57625 
L 194.93125 17.57625 
" style="fill: none; stroke-dasharray: 4.44,1.92; stroke-dashoffset: 0; stroke: #683d77; stroke-width: 1.2"/>
    </g>
    <g id="text_9">
     <!-- fit -->
     <g transform="translate(200.53125 20.02625) scale(0.08 -0.08)">
      <defs>
       <path id="ArialMT-66" d="M 556 0 
L 556 2881 
L 59 2881 
L 59 3319 
L 556 3319 
L 556 3672 
Q 556 4006 616 4169 
Q 697 4388 901 4523 
Q 1106 4659 1475 4659 
Q 1713 4659 2000 4603 
L 1916 4113 
Q 1741 4144 1584 4144 
Q 1328 4144 1222 4034 
Q 1116 3925 1116 3625 
L 1116 3319 
L 1763 3319 
L 1763 2881 
L 1116 2881 
L 1116 0 
L 556 0 
z
" transform="scale(0.015625)"/>
      </defs>
      <use xlink:href="#ArialMT-66"/>
      <use xlink:href="#ArialMT-69" x="27.783203"/>
      <use xlink:href="#ArialMT-74" x="50"/>
     </g>
    </g>
    <g id="line2d_10">
     <g>
      <use xlink:href="#m7da17aae53" x="190.73125" y="28.3925" style="stroke: #000000; stroke-width: 0.8"/>
     </g>
    </g>
    <g id="text_10">
     <!-- data -->
     <g transform="translate(200.53125 30.8425) scale(0.08 -0.08)">
      <defs>
       <path id="ArialMT-64" d="M 2575 0 
L 2575 419 
Q 2259 -75 1647 -75 
Q 1250 -75 917 144 
Q 584 363 401 755 
Q 219 1147 219 1656 
Q 219 2153 384 2558 
Q 550 2963 881 3178 
Q 1213 3394 1622 3394 
Q 1922 3394 2156 3267 
Q 2391 3141 2538 2938 
L 2538 4581 
L 3097 4581 
L 3097 0 
L 2575 0 
z
M 797 1656 
Q 797 1019 1065 703 
Q 1334 388 1700 388 
Q 2069 388 2326 689 
Q 2584 991 2584 1609 
Q 2584 2291 2321 2609 
Q 2059 2928 1675 2928 
Q 1300 2928 1048 2622 
Q 797 2316 797 1656 
z
" transform="scale(0.015625)"/>
      </defs>
      <use xlink:href="#ArialMT-64"/>
      <use xlink:href="#ArialMT-61" x="55.615234"/>
      <use xlink:href="#ArialMT-74" x="111.230469"/>
      <use xlink:href="#ArialMT-61" x="139.013672"/>
     </g>
    </g>
   </g>
  </g>
 </g>
 <defs>
  <clipPath id="p06f212b38d">
   <rect x="50.592" y="8" width="171.808" height="103.66"/>
  </clipPath>
 </defs>
</svg>
