<?xml version="1.0" encoding="utf-8" standalone="no"?>
<!DOCTYPE svg PUBLIC "-//W3C//DTD SVG 1.1//EN"
  "http://www.w3.org/Graphics/SVG/1.1/DTD/svg11.dtd">
<svg xmlns:xlink="http://www.w3.org/1999/xlink" width="1478.607812pt" height="154.525937pt" viewBox="0 0 1478.607812 154.525937" xmlns="http://www.w3.org/2000/svg" version="1.1">
 <metadata>
  <rdf:RDF xmlns:dc="http://purl.org/dc/elements/1.1/" xmlns:cc="http://creativecommons.org/ns#" xmlns:rdf="http://www.w3.org/1999/02/22-rdf-syntax-ns#">
   <cc:Work>
    <dc:type rdf:resource="http://purl.org/dc/dcmitype/StillImage"/>
    <dc:date>2025-10-16T13:18:46.939964</dc:date>
    <dc:format>image/svg+xml</dc:format>
    <dc:creator>
     <cc:Agent>
      <dc:title>Matplotlib v3.8.4, https://matplotlib.org/</dc:title>
     </cc:Agent>
    </dc:creator>
   </cc:Work>
  </rdf:RDF>
 </metadata>
 <defs>
  <style type="text/css">*{stroke-linejoin: round; stroke-linecap: butt}</style>
 </defs>
 <g id="figure_1">
  <g id="patch_1">
   <path d="M 0 154.525937 
L 1478.607812 154.525937 
L 1478.607812 0 
L 0 0 
z
" style="fill: #ffffff"/>
  </g>
  <g id="axes_1">
   <g id="patch_2">
    <path d="M 57.4625 108.0075 
L 1463.6225 108.0075 
L 1463.6225 24.8475 
L 57.4625 24.8475 
z
" style="fill: #ffffff"/>
   </g>
   <g id="matplotlib.axis_1">
    <g id="xtick_1">
     <g id="line2d_1">
      <defs>
       <path id="m1c1e2b8f54" d="M 0 0 
L 0 4 
" style="stroke: #000000; stroke-width: 0.9"/>
      </defs>
      <g>
       <use xlink:href="#m1c1e2b8f54" x="57.4625" y="108.0075" style="stroke: #000000; stroke-width: 0.9"/>
      </g>
     </g>
     <g id="text_1">
      <!-- 0 -->
      <g transform="translate(53.569844 125.528437) scale(0.14 -0.14)">
       <defs>
        <path id="ArialMT-30" d="M 266 2259 
Q 266 3072 433 3567 
Q 600 4063 929 4331 
Q 1259 4600 1759 4600 
Q 2128 4600 2406 4451 
Q 2684 4303 2865 4023 
Q 3047 3744 3150 3342 
Q 3253 2941 3253 2259 
Q 3253 1453 3087 958 
Q 2922 463 2592 192 
Q 2263 -78 1759 -78 
Q 1097 -78 719 397 
Q 266 969 266 2259 
z
M 844 2259 
Q 844 1131 1108 757 
Q 1372 384 1759 384 
Q 2147 384 2411 759 
Q 2675 1134 2675 2259 
Q 2675 3391 2411 3762 
Q 2147 4134 1753 4134 
Q 1366 4134 1134 3806 
Q 844 3388 844 2259 
z
" transform="scale(0.015625)"/>
       </defs>
       <use xlink:href="#ArialMT-30"/>
      </g>
     </g>
    </g>
    <g id="xtick_2">
     <g id="line2d_2">
      <g>
       <use xlink:href="#m1c1e2b8f54" x="291.8225" y="108.0075" style="stroke: #000000; stroke-width: 0.9"/>
      </g>
     </g>
     <g id="text_2">
      <!-- 3 -->
      <g transform="translate(287.929844 125.528437) scale(0.14 -0.14)">
       <defs>
        <path id="ArialMT-33" d="M 269 1209 
L 831 1284 
Q 928 806 1161 595 
Q 1394 384 1728 384 
Q 2125 384 2398 659 
Q 2672 934 2672 1341 
Q 2672 1728 2419 1979 
Q 2166 2231 1775 2231 
Q 1616 2231 1378 2169 
L 1441 2663 
Q 1497 2656 1531 2656 
Q 1891 2656 2178 2843 
Q 2466 3031 2466 3422 
Q 2466 3731 2256 3934 
Q 2047 4138 1716 4138 
Q 1388 4138 1169 3931 
Q 950 3725 888 3313 
L 325 3413 
Q 428 3978 793 4289 
Q 1159 4600 1703 4600 
Q 2078 4600 2393 4439 
Q 2709 4278 2876 4000 
Q 3044 3722 3044 3409 
Q 3044 3113 2884 2869 
Q 2725 2625 2413 2481 
Q 2819 2388 3044 2092 
Q 3269 1797 3269 1353 
Q 3269 753 2831 336 
Q 2394 -81 1725 -81 
Q 1122 -81 723 278 
Q 325 638 269 1209 
z
" transform="scale(0.015625)"/>
       </defs>
       <use xlink:href="#ArialMT-33"/>
      </g>
     </g>
    </g>
    <g id="xtick_3">
     <g id="line2d_3">
      <g>
       <use xlink:href="#m1c1e2b8f54" x="526.1825" y="108.0075" style="stroke: #000000; stroke-width: 0.9"/>
      </g>
     </g>
     <g id="text_3">
      <!-- 6 -->
      <g transform="translate(522.289844 125.528437) scale(0.14 -0.14)">
       <defs>
        <path id="ArialMT-36" d="M 3184 3459 
L 2625 3416 
Q 2550 3747 2413 3897 
Q 2184 4138 1850 4138 
Q 1581 4138 1378 3988 
Q 1113 3794 959 3422 
Q 806 3050 800 2363 
Q 1003 2672 1297 2822 
Q 1591 2972 1913 2972 
Q 2475 2972 2870 2558 
Q 3266 2144 3266 1488 
Q 3266 1056 3080 686 
Q 2894 316 2569 119 
Q 2244 -78 1831 -78 
Q 1128 -78 684 439 
Q 241 956 241 2144 
Q 241 3472 731 4075 
Q 1159 4600 1884 4600 
Q 2425 4600 2770 4297 
Q 3116 3994 3184 3459 
z
M 888 1484 
Q 888 1194 1011 928 
Q 1134 663 1356 523 
Q 1578 384 1822 384 
Q 2178 384 2434 671 
Q 2691 959 2691 1453 
Q 2691 1928 2437 2201 
Q 2184 2475 1800 2475 
Q 1419 2475 1153 2201 
Q 888 1928 888 1484 
z
" transform="scale(0.015625)"/>
       </defs>
       <use xlink:href="#ArialMT-36"/>
      </g>
     </g>
    </g>
    <g id="xtick_4">
     <g id="line2d_4">
      <g>
       <use xlink:href="#m1c1e2b8f54" x="760.5425" y="108.0075" style="stroke: #000000; stroke-width: 0.9"/>
      </g>
     </g>
     <g id="text_4">
      <!-- 9 -->
      <g transform="translate(756.649844 125.528437) scale(0.14 -0.14)">
       <defs>
        <path id="ArialMT-39" d="M 350 1059 
L 891 1109 
Q 959 728 1153 556 
Q 1347 384 1650 384 
Q 1909 384 2104 503 
Q 2300 622 2425 820 
Q 2550 1019 2634 1356 
Q 2719 1694 2719 2044 
Q 2719 2081 2716 2156 
Q 2547 1888 2255 1720 
Q 1963 1553 1622 1553 
Q 1053 1553 659 1965 
Q 266 2378 266 3053 
Q 266 3750 677 4175 
Q 1088 4600 1706 4600 
Q 2153 4600 2523 4359 
Q 2894 4119 3086 3673 
Q 3278 3228 3278 2384 
Q 3278 1506 3087 986 
Q 2897 466 2520 194 
Q 2144 -78 1638 -78 
Q 1100 -78 759 220 
Q 419 519 350 1059 
z
M 2653 3081 
Q 2653 3566 2395 3850 
Q 2138 4134 1775 4134 
Q 1400 4134 1122 3828 
Q 844 3522 844 3034 
Q 844 2597 1108 2323 
Q 1372 2050 1759 2050 
Q 2150 2050 2401 2323 
Q 2653 2597 2653 3081 
z
" transform="scale(0.015625)"/>
       </defs>
       <use xlink:href="#ArialMT-39"/>
      </g>
     </g>
    </g>
    <g id="xtick_5">
     <g id="line2d_5">
      <g>
       <use xlink:href="#m1c1e2b8f54" x="994.9025" y="108.0075" style="stroke: #000000; stroke-width: 0.9"/>
      </g>
     </g>
     <g id="text_5">
      <!-- 12 -->
      <g transform="translate(987.117187 125.528437) scale(0.14 -0.14)">
       <defs>
        <path id="ArialMT-31" d="M 2384 0 
L 1822 0 
L 1822 3584 
Q 1619 3391 1289 3197 
Q 959 3003 697 2906 
L 697 3450 
Q 1169 3672 1522 3987 
Q 1875 4303 2022 4600 
L 2384 4600 
L 2384 0 
z
" transform="scale(0.015625)"/>
        <path id="ArialMT-32" d="M 3222 541 
L 3222 0 
L 194 0 
Q 188 203 259 391 
Q 375 700 629 1000 
Q 884 1300 1366 1694 
Q 2113 2306 2375 2664 
Q 2638 3022 2638 3341 
Q 2638 3675 2398 3904 
Q 2159 4134 1775 4134 
Q 1369 4134 1125 3890 
Q 881 3647 878 3216 
L 300 3275 
Q 359 3922 746 4261 
Q 1134 4600 1788 4600 
Q 2447 4600 2831 4234 
Q 3216 3869 3216 3328 
Q 3216 3053 3103 2787 
Q 2991 2522 2730 2228 
Q 2469 1934 1863 1422 
Q 1356 997 1212 845 
Q 1069 694 975 541 
L 3222 541 
z
" transform="scale(0.015625)"/>
       </defs>
       <use xlink:href="#ArialMT-31"/>
       <use xlink:href="#ArialMT-32" x="55.615234"/>
      </g>
     </g>
    </g>
    <g id="xtick_6">
     <g id="line2d_6">
      <g>
       <use xlink:href="#m1c1e2b8f54" x="1229.2625" y="108.0075" style="stroke: #000000; stroke-width: 0.9"/>
      </g>
     </g>
     <g id="text_6">
      <!-- 15 -->
      <g transform="translate(1221.477188 125.528437) scale(0.14 -0.14)">
       <defs>
        <path id="ArialMT-35" d="M 266 1200 
L 856 1250 
Q 922 819 1161 601 
Q 1400 384 1738 384 
Q 2144 384 2425 690 
Q 2706 997 2706 1503 
Q 2706 1984 2436 2262 
Q 2166 2541 1728 2541 
Q 1456 2541 1237 2417 
Q 1019 2294 894 2097 
L 366 2166 
L 809 4519 
L 3088 4519 
L 3088 3981 
L 1259 3981 
L 1013 2750 
Q 1425 3038 1878 3038 
Q 2478 3038 2890 2622 
Q 3303 2206 3303 1553 
Q 3303 931 2941 478 
Q 2500 -78 1738 -78 
Q 1113 -78 717 272 
Q 322 622 266 1200 
z
" transform="scale(0.015625)"/>
       </defs>
       <use xlink:href="#ArialMT-31"/>
       <use xlink:href="#ArialMT-35" x="55.615234"/>
      </g>
     </g>
    </g>
    <g id="xtick_7">
     <g id="line2d_7">
      <g>
       <use xlink:href="#m1c1e2b8f54" x="1463.6225" y="108.0075" style="stroke: #000000; stroke-width: 0.9"/>
      </g>
     </g>
     <g id="text_7">
      <!-- 18 -->
      <g transform="translate(1455.837188 125.528437) scale(0.14 -0.14)">
       <defs>
        <path id="ArialMT-38" d="M 1131 2484 
Q 781 2613 612 2850 
Q 444 3088 444 3419 
Q 444 3919 803 4259 
Q 1163 4600 1759 4600 
Q 2359 4600 2725 4251 
Q 3091 3903 3091 3403 
Q 3091 3084 2923 2848 
Q 2756 2613 2416 2484 
Q 2838 2347 3058 2040 
Q 3278 1734 3278 1309 
Q 3278 722 2862 322 
Q 2447 -78 1769 -78 
Q 1091 -78 675 323 
Q 259 725 259 1325 
Q 259 1772 486 2073 
Q 713 2375 1131 2484 
z
M 1019 3438 
Q 1019 3113 1228 2906 
Q 1438 2700 1772 2700 
Q 2097 2700 2305 2904 
Q 2513 3109 2513 3406 
Q 2513 3716 2298 3927 
Q 2084 4138 1766 4138 
Q 1444 4138 1231 3931 
Q 1019 3725 1019 3438 
z
M 838 1322 
Q 838 1081 952 856 
Q 1066 631 1291 507 
Q 1516 384 1775 384 
Q 2178 384 2440 643 
Q 2703 903 2703 1303 
Q 2703 1709 2433 1975 
Q 2163 2241 1756 2241 
Q 1359 2241 1098 1978 
Q 838 1716 838 1322 
z
" transform="scale(0.015625)"/>
       </defs>
       <use xlink:href="#ArialMT-31"/>
       <use xlink:href="#ArialMT-38" x="55.615234"/>
      </g>
     </g>
    </g>
    <g id="text_8">
     <!-- Time (s) -->
     <g transform="translate(731.51625 143.958438) scale(0.16 -0.16)">
      <defs>
       <path id="ArialMT-54" d="M 1659 0 
L 1659 4041 
L 150 4041 
L 150 4581 
L 3781 4581 
L 3781 4041 
L 2266 4041 
L 2266 0 
L 1659 0 
z
" transform="scale(0.015625)"/>
       <path id="ArialMT-69" d="M 425 3934 
L 425 4581 
L 988 4581 
L 988 3934 
L 425 3934 
z
M 425 0 
L 425 3319 
L 988 3319 
L 988 0 
L 425 0 
z
" transform="scale(0.015625)"/>
       <path id="ArialMT-6d" d="M 422 0 
L 422 3319 
L 925 3319 
L 925 2853 
Q 1081 3097 1340 3245 
Q 1600 3394 1931 3394 
Q 2300 3394 2536 3241 
Q 2772 3088 2869 2813 
Q 3263 3394 3894 3394 
Q 4388 3394 4653 3120 
Q 4919 2847 4919 2278 
L 4919 0 
L 4359 0 
L 4359 2091 
Q 4359 2428 4304 2576 
Q 4250 2725 4106 2815 
Q 3963 2906 3769 2906 
Q 3419 2906 3187 2673 
Q 2956 2441 2956 1928 
L 2956 0 
L 2394 0 
L 2394 2156 
Q 2394 2531 2256 2718 
Q 2119 2906 1806 2906 
Q 1569 2906 1367 2781 
Q 1166 2656 1075 2415 
Q 984 2175 984 1722 
L 984 0 
L 422 0 
z
" transform="scale(0.015625)"/>
       <path id="ArialMT-65" d="M 2694 1069 
L 3275 997 
Q 3138 488 2766 206 
Q 2394 -75 1816 -75 
Q 1088 -75 661 373 
Q 234 822 234 1631 
Q 234 2469 665 2931 
Q 1097 3394 1784 3394 
Q 2450 3394 2872 2941 
Q 3294 2488 3294 1666 
Q 3294 1616 3291 1516 
L 816 1516 
Q 847 969 1125 678 
Q 1403 388 1819 388 
Q 2128 388 2347 550 
Q 2566 713 2694 1069 
z
M 847 1978 
L 2700 1978 
Q 2663 2397 2488 2606 
Q 2219 2931 1791 2931 
Q 1403 2931 1139 2672 
Q 875 2413 847 1978 
z
" transform="scale(0.015625)"/>
       <path id="ArialMT-20" transform="scale(0.015625)"/>
       <path id="ArialMT-28" d="M 1497 -1347 
Q 1031 -759 709 28 
Q 388 816 388 1659 
Q 388 2403 628 3084 
Q 909 3875 1497 4659 
L 1900 4659 
Q 1522 4009 1400 3731 
Q 1209 3300 1100 2831 
Q 966 2247 966 1656 
Q 966 153 1900 -1347 
L 1497 -1347 
z
" transform="scale(0.015625)"/>
       <path id="ArialMT-73" d="M 197 991 
L 753 1078 
Q 800 744 1014 566 
Q 1228 388 1613 388 
Q 2000 388 2187 545 
Q 2375 703 2375 916 
Q 2375 1106 2209 1216 
Q 2094 1291 1634 1406 
Q 1016 1563 777 1677 
Q 538 1791 414 1992 
Q 291 2194 291 2438 
Q 291 2659 392 2848 
Q 494 3038 669 3163 
Q 800 3259 1026 3326 
Q 1253 3394 1513 3394 
Q 1903 3394 2198 3281 
Q 2494 3169 2634 2976 
Q 2775 2784 2828 2463 
L 2278 2388 
Q 2241 2644 2061 2787 
Q 1881 2931 1553 2931 
Q 1166 2931 1000 2803 
Q 834 2675 834 2503 
Q 834 2394 903 2306 
Q 972 2216 1119 2156 
Q 1203 2125 1616 2013 
Q 2213 1853 2448 1751 
Q 2684 1650 2818 1456 
Q 2953 1263 2953 975 
Q 2953 694 2789 445 
Q 2625 197 2315 61 
Q 2006 -75 1616 -75 
Q 969 -75 630 194 
Q 291 463 197 991 
z
" transform="scale(0.015625)"/>
       <path id="ArialMT-29" d="M 791 -1347 
L 388 -1347 
Q 1322 153 1322 1656 
Q 1322 2244 1188 2822 
Q 1081 3291 891 3722 
Q 769 4003 388 4659 
L 791 4659 
Q 1378 3875 1659 3084 
Q 1900 2403 1900 1659 
Q 1900 816 1576 28 
Q 1253 -759 791 -1347 
z
" transform="scale(0.015625)"/>
      </defs>
      <use xlink:href="#ArialMT-54"/>
      <use xlink:href="#ArialMT-69" x="57.333984"/>
      <use xlink:href="#ArialMT-6d" x="79.550781"/>
      <use xlink:href="#ArialMT-65" x="162.851562"/>
      <use xlink:href="#ArialMT-20" x="218.466797"/>
      <use xlink:href="#ArialMT-28" x="246.25"/>
      <use xlink:href="#ArialMT-73" x="279.550781"/>
      <use xlink:href="#ArialMT-29" x="329.550781"/>
     </g>
    </g>
   </g>
   <g id="matplotlib.axis_2">
    <g id="ytick_1">
     <g id="line2d_8">
      <defs>
       <path id="m2118bdc47d" d="M 0 0 
L -4 0 
" style="stroke: #000000; stroke-width: 0.9"/>
      </defs>
      <g>
       <use xlink:href="#m2118bdc47d" x="57.4625" y="104.227577" style="stroke: #000000; stroke-width: 0.9"/>
      </g>
     </g>
     <g id="text_9">
      <!-- −10 -->
      <g transform="translate(26.215 109.238046) scale(0.14 -0.14)">
       <defs>
        <path id="ArialMT-2212" d="M 3381 1997 
L 356 1997 
L 356 2522 
L 3381 2522 
L 3381 1997 
z
" transform="scale(0.015625)"/>
       </defs>
       <use xlink:href="#ArialMT-2212"/>
       <use xlink:href="#ArialMT-31" x="58.398438"/>
       <use xlink:href="#ArialMT-30" x="114.013672"/>
      </g>
     </g>
    </g>
    <g id="ytick_2">
     <g id="line2d_9">
      <g>
       <use xlink:href="#m2118bdc47d" x="57.4625" y="66.426573" style="stroke: #000000; stroke-width: 0.9"/>
      </g>
     </g>
     <g id="text_10">
      <!-- 0 -->
      <g transform="translate(42.177188 71.437042) scale(0.14 -0.14)">
       <use xlink:href="#ArialMT-30"/>
      </g>
     </g>
    </g>
    <g id="ytick_3">
     <g id="line2d_10">
      <g>
       <use xlink:href="#m2118bdc47d" x="57.4625" y="28.625569" style="stroke: #000000; stroke-width: 0.9"/>
      </g>
     </g>
     <g id="text_11">
      <!-- 10 -->
      <g transform="translate(34.391875 33.636038) scale(0.14 -0.14)">
       <use xlink:href="#ArialMT-31"/>
       <use xlink:href="#ArialMT-30" x="55.615234"/>
      </g>
     </g>
    </g>
    <g id="text_12">
     <!-- Velocity (cm/s) -->
     <g transform="translate(18.8475 118.435) rotate(-90) scale(0.16 -0.16)">
      <defs>
       <path id="ArialMT-56" d="M 1803 0 
L 28 4581 
L 684 4581 
L 1875 1253 
Q 2019 853 2116 503 
Q 2222 878 2363 1253 
L 3600 4581 
L 4219 4581 
L 2425 0 
L 1803 0 
z
" transform="scale(0.015625)"/>
       <path id="ArialMT-6c" d="M 409 0 
L 409 4581 
L 972 4581 
L 972 0 
L 409 0 
z
" transform="scale(0.015625)"/>
       <path id="ArialMT-6f" d="M 213 1659 
Q 213 2581 725 3025 
Q 1153 3394 1769 3394 
Q 2453 3394 2887 2945 
Q 3322 2497 3322 1706 
Q 3322 1066 3130 698 
Q 2938 331 2570 128 
Q 2203 -75 1769 -75 
Q 1072 -75 642 372 
Q 213 819 213 1659 
z
M 791 1659 
Q 791 1022 1069 705 
Q 1347 388 1769 388 
Q 2188 388 2466 706 
Q 2744 1025 2744 1678 
Q 2744 2294 2464 2611 
Q 2184 2928 1769 2928 
Q 1347 2928 1069 2612 
Q 791 2297 791 1659 
z
" transform="scale(0.015625)"/>
       <path id="ArialMT-63" d="M 2588 1216 
L 3141 1144 
Q 3050 572 2676 248 
Q 2303 -75 1759 -75 
Q 1078 -75 664 370 
Q 250 816 250 1647 
Q 250 2184 428 2587 
Q 606 2991 970 3192 
Q 1334 3394 1763 3394 
Q 2303 3394 2647 3120 
Q 2991 2847 3088 2344 
L 2541 2259 
Q 2463 2594 2264 2762 
Q 2066 2931 1784 2931 
Q 1359 2931 1093 2626 
Q 828 2322 828 1663 
Q 828 994 1084 691 
Q 1341 388 1753 388 
Q 2084 388 2306 591 
Q 2528 794 2588 1216 
z
" transform="scale(0.015625)"/>
       <path id="ArialMT-74" d="M 1650 503 
L 1731 6 
Q 1494 -44 1306 -44 
Q 1000 -44 831 53 
Q 663 150 594 308 
Q 525 466 525 972 
L 525 2881 
L 113 2881 
L 113 3319 
L 525 3319 
L 525 4141 
L 1084 4478 
L 1084 3319 
L 1650 3319 
L 1650 2881 
L 1084 2881 
L 1084 941 
Q 1084 700 1114 631 
Q 1144 563 1211 522 
Q 1278 481 1403 481 
Q 1497 481 1650 503 
z
" transform="scale(0.015625)"/>
       <path id="ArialMT-79" d="M 397 -1278 
L 334 -750 
Q 519 -800 656 -800 
Q 844 -800 956 -737 
Q 1069 -675 1141 -563 
Q 1194 -478 1313 -144 
Q 1328 -97 1363 -6 
L 103 3319 
L 709 3319 
L 1400 1397 
Q 1534 1031 1641 628 
Q 1738 1016 1872 1384 
L 2581 3319 
L 3144 3319 
L 1881 -56 
Q 1678 -603 1566 -809 
Q 1416 -1088 1222 -1217 
Q 1028 -1347 759 -1347 
Q 597 -1347 397 -1278 
z
" transform="scale(0.015625)"/>
       <path id="ArialMT-2f" d="M 0 -78 
L 1328 4659 
L 1778 4659 
L 453 -78 
L 0 -78 
z
" transform="scale(0.015625)"/>
      </defs>
      <use xlink:href="#ArialMT-56"/>
      <use xlink:href="#ArialMT-65" x="61.199219"/>
      <use xlink:href="#ArialMT-6c" x="116.814453"/>
      <use xlink:href="#ArialMT-6f" x="139.03125"/>
      <use xlink:href="#ArialMT-63" x="194.646484"/>
      <use xlink:href="#ArialMT-69" x="244.646484"/>
      <use xlink:href="#ArialMT-74" x="266.863281"/>
      <use xlink:href="#ArialMT-79" x="294.646484"/>
      <use xlink:href="#ArialMT-20" x="344.646484"/>
      <use xlink:href="#ArialMT-28" x="372.429688"/>
      <use xlink:href="#ArialMT-63" x="405.730469"/>
      <use xlink:href="#ArialMT-6d" x="455.730469"/>
      <use xlink:href="#ArialMT-2f" x="539.03125"/>
      <use xlink:href="#ArialMT-73" x="566.814453"/>
      <use xlink:href="#ArialMT-29" x="616.814453"/>
     </g>
    </g>
   </g>
   <g id="line2d_11">
    <path d="M 57.4625 66.426573 
L 63.09277 54.411607 
L 65.907905 48.79714 
L 68.723041 43.642792 
L 71.538176 39.083086 
L 74.353311 35.23703 
L 75.760878 33.613792 
L 77.168446 32.205003 
L 78.576014 31.01987 
L 79.983581 30.066139 
L 81.391149 29.350042 
L 82.798716 28.876261 
L 84.206284 28.647891 
L 85.613851 28.666424 
L 87.021419 28.931741 
L 88.428986 29.442106 
L 89.836554 30.194184 
L 91.244122 31.18306 
L 92.651689 32.402272 
L 94.059257 33.84385 
L 95.466824 35.498374 
L 96.874392 37.35503 
L 99.689527 41.624961 
L 102.504662 46.542199 
L 105.319797 51.978407 
L 109.5425 60.792626 
L 117.987905 78.875382 
L 120.803041 84.460295 
L 123.618176 89.574539 
L 126.433311 94.084635 
L 127.840878 96.075639 
L 129.248446 97.872871 
L 130.656014 99.464585 
L 132.063581 100.840378 
L 133.471149 101.991258 
L 134.878716 102.909703 
L 136.286284 103.589712 
L 137.693851 104.026841 
L 139.101419 104.218231 
L 140.508986 104.162633 
L 141.916554 103.860409 
L 143.324122 103.313536 
L 144.731689 102.525586 
L 146.139257 101.50171 
L 147.546824 100.248599 
L 148.954392 98.774444 
L 150.361959 97.088878 
L 151.769527 95.202917 
L 154.584662 90.880344 
L 157.399797 85.919542 
L 160.214932 80.449985 
L 164.437635 71.606723 
L 172.883041 53.545754 
L 175.698176 47.991214 
L 178.513311 42.917827 
L 181.328446 38.458005 
L 182.736014 36.495267 
L 184.143581 34.728146 
L 185.551149 33.168191 
L 186.958716 31.825598 
L 188.366284 30.70914 
L 189.773851 29.826115 
L 191.181419 29.182293 
L 192.588986 28.781882 
L 193.996554 28.6275 
L 195.404122 28.720155 
L 196.811689 29.059241 
L 198.219257 29.642543 
L 199.626824 30.466248 
L 201.034392 31.524972 
L 202.441959 32.811798 
L 203.849527 34.318314 
L 205.257095 36.034674 
L 208.07223 40.050761 
L 210.887365 44.755242 
L 213.7025 50.025332 
L 217.925203 58.686942 
L 229.185743 82.551876 
L 232.000878 87.846743 
L 234.816014 92.582557 
L 237.631149 96.635715 
L 239.038716 98.372465 
L 240.446284 99.900431 
L 241.853851 101.209628 
L 243.261419 102.2915 
L 244.668986 103.138975 
L 246.076554 103.746514 
L 247.484122 104.110148 
L 248.891689 104.2275 
L 250.299257 104.097803 
L 251.706824 103.721903 
L 253.114392 103.10226 
L 254.521959 102.24292 
L 255.929527 101.149502 
L 257.337095 99.829152 
L 258.744662 98.290497 
L 260.15223 96.543595 
L 262.967365 92.472001 
L 265.7825 87.720637 
L 268.597635 82.41351 
L 272.820338 73.716845 
L 282.673311 52.68748 
L 285.488446 47.196138 
L 288.303581 42.206698 
L 291.118716 37.849383 
L 292.526284 66.426573 
L 994.9025 66.426573 
L 996.310068 85.525269 
L 999.125203 90.528905 
L 1001.940338 94.903484 
L 1003.347905 96.818472 
L 1004.755473 98.534832 
L 1006.163041 100.041348 
L 1007.570608 101.328174 
L 1008.978176 102.386899 
L 1010.385743 103.210604 
L 1011.793311 103.793905 
L 1013.200878 104.132991 
L 1014.608446 104.225646 
L 1016.016014 104.071264 
L 1017.423581 103.670853 
L 1018.831149 103.027031 
L 1020.238716 102.144006 
L 1021.646284 101.027548 
L 1023.053851 99.684955 
L 1024.461419 98.125 
L 1025.868986 96.357879 
L 1028.684122 92.249614 
L 1031.499257 87.467382 
L 1034.314392 82.135997 
L 1038.537095 73.416671 
L 1048.390068 52.403161 
L 1051.205203 46.933604 
L 1054.020338 41.972802 
L 1056.835473 37.650229 
L 1058.243041 35.764268 
L 1059.650608 34.078702 
L 1061.058176 32.604547 
L 1062.465743 31.351436 
L 1063.873311 30.32756 
L 1065.280878 29.539611 
L 1066.688446 28.992737 
L 1068.096014 28.690513 
L 1069.503581 28.634915 
L 1070.911149 28.826306 
L 1072.318716 29.263434 
L 1073.726284 29.943443 
L 1075.133851 30.861889 
L 1076.541419 32.012769 
L 1077.948986 33.388561 
L 1079.356554 34.980275 
L 1080.764122 36.777507 
L 1083.579257 40.940276 
L 1086.394392 45.768222 
L 1089.209527 51.13534 
L 1093.43223 59.887585 
L 1103.285203 80.874739 
L 1106.100338 86.310947 
L 1108.915473 91.228186 
L 1111.730608 95.498116 
L 1113.138176 97.354772 
L 1114.545743 99.009296 
L 1115.953311 100.450874 
L 1117.360878 101.670086 
L 1118.768446 102.658962 
L 1120.176014 103.41104 
L 1121.583581 103.921406 
L 1122.991149 104.186722 
L 1124.398716 104.205256 
L 1125.806284 103.976885 
L 1127.213851 103.503104 
L 1128.621419 102.787008 
L 1130.028986 101.833276 
L 1131.436554 100.648143 
L 1132.844122 99.239354 
L 1134.251689 97.616116 
L 1135.659257 95.789038 
L 1138.474392 91.572378 
L 1141.289527 86.699427 
L 1144.104662 81.297367 
L 1148.327365 72.513488 
L 1156.77277 54.411607 
L 1159.587905 48.79714 
L 1162.403041 43.642792 
L 1165.218176 39.083086 
L 1168.033311 35.23703 
L 1169.440878 33.613792 
L 1170.848446 32.205003 
L 1172.256014 31.01987 
L 1173.663581 30.066139 
L 1175.071149 29.350042 
L 1176.478716 28.876261 
L 1177.886284 28.647891 
L 1179.293851 28.666424 
L 1180.701419 28.931741 
L 1182.108986 29.442106 
L 1183.516554 30.194184 
L 1184.924122 31.18306 
L 1186.331689 32.402272 
L 1187.739257 33.84385 
L 1189.146824 35.498374 
L 1190.554392 37.35503 
L 1193.369527 41.624961 
L 1196.184662 46.542199 
L 1198.999797 51.978407 
L 1203.2225 60.792626 
L 1211.667905 78.875382 
L 1214.483041 84.460295 
L 1217.298176 89.574539 
L 1220.113311 94.084635 
L 1221.520878 96.075639 
L 1222.928446 97.872871 
L 1224.336014 99.464585 
L 1225.743581 100.840378 
L 1227.151149 101.991258 
L 1228.558716 102.909703 
L 1229.966284 103.589712 
L 1231.373851 104.026841 
L 1232.781419 104.218231 
L 1234.188986 104.162633 
L 1235.596554 103.860409 
L 1237.004122 103.313536 
L 1238.411689 102.525586 
L 1239.819257 101.50171 
L 1241.226824 100.248599 
L 1242.634392 98.774444 
L 1244.041959 97.088878 
L 1245.449527 95.202917 
L 1248.264662 90.880344 
L 1251.079797 85.919542 
L 1253.894932 80.449985 
L 1258.117635 71.606723 
L 1266.563041 53.545754 
L 1269.378176 47.991214 
L 1272.193311 42.917827 
L 1275.008446 38.458005 
L 1276.416014 36.495267 
L 1277.823581 34.728146 
L 1279.231149 33.168191 
L 1280.638716 31.825598 
L 1282.046284 30.70914 
L 1283.453851 29.826115 
L 1284.861419 29.182293 
L 1286.268986 28.781882 
L 1287.676554 28.6275 
L 1289.084122 28.720155 
L 1290.491689 29.059241 
L 1291.899257 29.642543 
L 1293.306824 30.466248 
L 1294.714392 31.524972 
L 1296.121959 32.811798 
L 1297.529527 34.318314 
L 1298.937095 36.034674 
L 1301.75223 40.050761 
L 1304.567365 44.755242 
L 1307.3825 50.025332 
L 1311.605203 58.686942 
L 1322.865743 82.551876 
L 1325.680878 87.846743 
L 1328.496014 92.582557 
L 1331.311149 96.635715 
L 1332.718716 98.372465 
L 1334.126284 99.900431 
L 1335.533851 101.209628 
L 1336.941419 102.2915 
L 1338.348986 103.138975 
L 1339.756554 103.746514 
L 1341.164122 104.110148 
L 1342.571689 104.2275 
L 1343.979257 104.097803 
L 1345.386824 103.721903 
L 1346.794392 103.10226 
L 1348.201959 102.24292 
L 1349.609527 101.149502 
L 1351.017095 99.829152 
L 1352.424662 98.290497 
L 1353.83223 96.543595 
L 1356.647365 92.472001 
L 1359.4625 87.720637 
L 1362.277635 82.41351 
L 1366.500338 73.716845 
L 1376.353311 52.68748 
L 1379.168446 47.196138 
L 1381.983581 42.206698 
L 1384.798716 37.849383 
L 1386.206284 35.94404 
L 1387.613851 34.237917 
L 1389.021419 32.742163 
L 1390.428986 31.466555 
L 1391.836554 30.41943 
L 1393.244122 29.60763 
L 1394.651689 29.036462 
L 1396.059257 28.709658 
L 1397.466824 28.629354 
L 1398.874392 28.796075 
L 1400.281959 29.208732 
L 1401.689527 29.864627 
L 1403.097095 30.759473 
L 1404.504662 31.887424 
L 1405.91223 33.241106 
L 1407.319797 34.811673 
L 1408.727365 36.58886 
L 1411.5425 40.715361 
L 1414.357635 45.512909 
L 1417.17277 50.856292 
L 1421.395473 59.586734 
L 1431.248446 80.591802 
L 1434.063581 86.050332 
L 1436.878716 90.996694 
L 1439.693851 95.301789 
L 1441.101419 97.178012 
L 1442.508986 98.853258 
L 1443.916554 100.316579 
L 1445.324122 101.55841 
L 1446.731689 102.570636 
L 1448.139257 103.346641 
L 1449.546824 103.881354 
L 1450.954392 104.17128 
L 1452.361959 104.214524 
L 1453.769527 104.010803 
L 1455.177095 103.56145 
L 1456.584662 102.8694 
L 1457.99223 101.939177 
L 1459.399797 100.776861 
L 1460.807365 99.390047 
L 1462.214932 97.787799 
L 1463.6225 95.980588 
L 1463.6225 95.980588 
" clip-path="url(#p1f95c72329)" style="fill: none; stroke: #683d77; stroke-width: 3; stroke-linecap: square"/>
   </g>
   <g id="patch_3">
    <path d="M 57.4625 108.0075 
L 57.4625 24.8475 
" style="fill: none; stroke: #000000; stroke-width: 1.1; stroke-linejoin: miter; stroke-linecap: square"/>
   </g>
   <g id="patch_4">
    <path d="M 57.4625 108.0075 
L 1463.6225 108.0075 
" style="fill: none; stroke: #000000; stroke-width: 1.1; stroke-linejoin: miter; stroke-linecap: square"/>
   </g>
   <g id="text_13">
    <!-- Pulsatile flow with stationary phase -->
    <g transform="translate(636.48625 18.8475) scale(0.16 -0.16)">
     <defs>
      <path id="ArialMT-50" d="M 494 0 
L 494 4581 
L 2222 4581 
Q 2678 4581 2919 4538 
Q 3256 4481 3484 4323 
Q 3713 4166 3852 3881 
Q 3991 3597 3991 3256 
Q 3991 2672 3619 2267 
Q 3247 1863 2275 1863 
L 1100 1863 
L 1100 0 
L 494 0 
z
M 1100 2403 
L 2284 2403 
Q 2872 2403 3119 2622 
Q 3366 2841 3366 3238 
Q 3366 3525 3220 3729 
Q 3075 3934 2838 4000 
Q 2684 4041 2272 4041 
L 1100 4041 
L 1100 2403 
z
" transform="scale(0.015625)"/>
      <path id="ArialMT-75" d="M 2597 0 
L 2597 488 
Q 2209 -75 1544 -75 
Q 1250 -75 995 37 
Q 741 150 617 320 
Q 494 491 444 738 
Q 409 903 409 1263 
L 409 3319 
L 972 3319 
L 972 1478 
Q 972 1038 1006 884 
Q 1059 663 1231 536 
Q 1403 409 1656 409 
Q 1909 409 2131 539 
Q 2353 669 2445 892 
Q 2538 1116 2538 1541 
L 2538 3319 
L 3100 3319 
L 3100 0 
L 2597 0 
z
" transform="scale(0.015625)"/>
      <path id="ArialMT-61" d="M 2588 409 
Q 2275 144 1986 34 
Q 1697 -75 1366 -75 
Q 819 -75 525 192 
Q 231 459 231 875 
Q 231 1119 342 1320 
Q 453 1522 633 1644 
Q 813 1766 1038 1828 
Q 1203 1872 1538 1913 
Q 2219 1994 2541 2106 
Q 2544 2222 2544 2253 
Q 2544 2597 2384 2738 
Q 2169 2928 1744 2928 
Q 1347 2928 1158 2789 
Q 969 2650 878 2297 
L 328 2372 
Q 403 2725 575 2942 
Q 747 3159 1072 3276 
Q 1397 3394 1825 3394 
Q 2250 3394 2515 3294 
Q 2781 3194 2906 3042 
Q 3031 2891 3081 2659 
Q 3109 2516 3109 2141 
L 3109 1391 
Q 3109 606 3145 398 
Q 3181 191 3288 0 
L 2700 0 
Q 2613 175 2588 409 
z
M 2541 1666 
Q 2234 1541 1622 1453 
Q 1275 1403 1131 1340 
Q 988 1278 909 1158 
Q 831 1038 831 891 
Q 831 666 1001 516 
Q 1172 366 1500 366 
Q 1825 366 2078 508 
Q 2331 650 2450 897 
Q 2541 1088 2541 1459 
L 2541 1666 
z
" transform="scale(0.015625)"/>
      <path id="ArialMT-66" d="M 556 0 
L 556 2881 
L 59 2881 
L 59 3319 
L 556 3319 
L 556 3672 
Q 556 4006 616 4169 
Q 697 4388 901 4523 
Q 1106 4659 1475 4659 
Q 1713 4659 2000 4603 
L 1916 4113 
Q 1741 4144 1584 4144 
Q 1328 4144 1222 4034 
Q 1116 3925 1116 3625 
L 1116 3319 
L 1763 3319 
L 1763 2881 
L 1116 2881 
L 1116 0 
L 556 0 
z
" transform="scale(0.015625)"/>
      <path id="ArialMT-77" d="M 1034 0 
L 19 3319 
L 600 3319 
L 1128 1403 
L 1325 691 
Q 1338 744 1497 1375 
L 2025 3319 
L 2603 3319 
L 3100 1394 
L 3266 759 
L 3456 1400 
L 4025 3319 
L 4572 3319 
L 3534 0 
L 2950 0 
L 2422 1988 
L 2294 2553 
L 1622 0 
L 1034 0 
z
" transform="scale(0.015625)"/>
      <path id="ArialMT-68" d="M 422 0 
L 422 4581 
L 984 4581 
L 984 2938 
Q 1378 3394 1978 3394 
Q 2347 3394 2619 3248 
Q 2891 3103 3008 2847 
Q 3125 2591 3125 2103 
L 3125 0 
L 2563 0 
L 2563 2103 
Q 2563 2525 2380 2717 
Q 2197 2909 1863 2909 
Q 1613 2909 1392 2779 
Q 1172 2650 1078 2428 
Q 984 2206 984 1816 
L 984 0 
L 422 0 
z
" transform="scale(0.015625)"/>
      <path id="ArialMT-6e" d="M 422 0 
L 422 3319 
L 928 3319 
L 928 2847 
Q 1294 3394 1984 3394 
Q 2284 3394 2536 3286 
Q 2788 3178 2913 3003 
Q 3038 2828 3088 2588 
Q 3119 2431 3119 2041 
L 3119 0 
L 2556 0 
L 2556 2019 
Q 2556 2363 2490 2533 
Q 2425 2703 2258 2804 
Q 2091 2906 1866 2906 
Q 1506 2906 1245 2678 
Q 984 2450 984 1813 
L 984 0 
L 422 0 
z
" transform="scale(0.015625)"/>
      <path id="ArialMT-72" d="M 416 0 
L 416 3319 
L 922 3319 
L 922 2816 
Q 1116 3169 1280 3281 
Q 1444 3394 1641 3394 
Q 1925 3394 2219 3213 
L 2025 2691 
Q 1819 2813 1613 2813 
Q 1428 2813 1281 2702 
Q 1134 2591 1072 2394 
Q 978 2094 978 1738 
L 978 0 
L 416 0 
z
" transform="scale(0.015625)"/>
      <path id="ArialMT-70" d="M 422 -1272 
L 422 3319 
L 934 3319 
L 934 2888 
Q 1116 3141 1344 3267 
Q 1572 3394 1897 3394 
Q 2322 3394 2647 3175 
Q 2972 2956 3137 2557 
Q 3303 2159 3303 1684 
Q 3303 1175 3120 767 
Q 2938 359 2589 142 
Q 2241 -75 1856 -75 
Q 1575 -75 1351 44 
Q 1128 163 984 344 
L 984 -1272 
L 422 -1272 
z
M 931 1641 
Q 931 1000 1190 694 
Q 1450 388 1819 388 
Q 2194 388 2461 705 
Q 2728 1022 2728 1688 
Q 2728 2322 2467 2637 
Q 2206 2953 1844 2953 
Q 1484 2953 1207 2617 
Q 931 2281 931 1641 
z
" transform="scale(0.015625)"/>
     </defs>
     <use xlink:href="#ArialMT-50"/>
     <use xlink:href="#ArialMT-75" x="66.699219"/>
     <use xlink:href="#ArialMT-6c" x="122.314453"/>
     <use xlink:href="#ArialMT-73" x="144.53125"/>
     <use xlink:href="#ArialMT-61" x="194.53125"/>
     <use xlink:href="#ArialMT-74" x="250.146484"/>
     <use xlink:href="#ArialMT-69" x="277.929688"/>
     <use xlink:href="#ArialMT-6c" x="300.146484"/>
     <use xlink:href="#ArialMT-65" x="322.363281"/>
     <use xlink:href="#ArialMT-20" x="377.978516"/>
     <use xlink:href="#ArialMT-66" x="405.761719"/>
     <use xlink:href="#ArialMT-6c" x="433.544922"/>
     <use xlink:href="#ArialMT-6f" x="455.761719"/>
     <use xlink:href="#ArialMT-77" x="511.376953"/>
     <use xlink:href="#ArialMT-20" x="583.59375"/>
     <use xlink:href="#ArialMT-77" x="611.376953"/>
     <use xlink:href="#ArialMT-69" x="683.59375"/>
     <use xlink:href="#ArialMT-74" x="705.810547"/>
     <use xlink:href="#ArialMT-68" x="733.59375"/>
     <use xlink:href="#ArialMT-20" x="789.208984"/>
     <use xlink:href="#ArialMT-73" x="816.992188"/>
     <use xlink:href="#ArialMT-74" x="866.992188"/>
     <use xlink:href="#ArialMT-61" x="894.775391"/>
     <use xlink:href="#ArialMT-74" x="950.390625"/>
     <use xlink:href="#ArialMT-69" x="978.173828"/>
     <use xlink:href="#ArialMT-6f" x="1000.390625"/>
     <use xlink:href="#ArialMT-6e" x="1056.005859"/>
     <use xlink:href="#ArialMT-61" x="1111.621094"/>
     <use xlink:href="#ArialMT-72" x="1167.236328"/>
     <use xlink:href="#ArialMT-79" x="1200.537109"/>
     <use xlink:href="#ArialMT-20" x="1250.537109"/>
     <use xlink:href="#ArialMT-70" x="1278.320312"/>
     <use xlink:href="#ArialMT-68" x="1333.935547"/>
     <use xlink:href="#ArialMT-61" x="1389.550781"/>
     <use xlink:href="#ArialMT-73" x="1445.166016"/>
     <use xlink:href="#ArialMT-65" x="1495.166016"/>
    </g>
   </g>
  </g>
 </g>
 <defs>
  <clipPath id="p1f95c72329">
   <rect x="57.4625" y="24.8475" width="1406.16" height="83.16"/>
  </clipPath>
 </defs>
</svg>
