<?xml version="1.0" encoding="utf-8" standalone="no"?>
<!DOCTYPE svg PUBLIC "-//W3C//DTD SVG 1.1//EN"
  "http://www.w3.org/Graphics/SVG/1.1/DTD/svg11.dtd">
<svg xmlns:xlink="http://www.w3.org/1999/xlink" width="230.4pt" height="151.2pt" viewBox="0 0 230.4 151.2" xmlns="http://www.w3.org/2000/svg" version="1.1">
 <metadata>
  <rdf:RDF xmlns:dc="http://purl.org/dc/elements/1.1/" xmlns:cc="http://creativecommons.org/ns#" xmlns:rdf="http://www.w3.org/1999/02/22-rdf-syntax-ns#">
   <cc:Work>
    <dc:type rdf:resource="http://purl.org/dc/dcmitype/StillImage"/>
    <dc:date>2025-10-14T17:02:06.064701</dc:date>
    <dc:format>image/svg+xml</dc:format>
    <dc:creator>
     <cc:Agent>
      <dc:title>Matplotlib v3.8.4, https://matplotlib.org/</dc:title>
     </cc:Agent>
    </dc:creator>
   </cc:Work>
  </rdf:RDF>
 </metadata>
 <defs>
  <style type="text/css">*{stroke-linejoin: round; stroke-linecap: butt}</style>
 </defs>
 <g id="figure_1">
  <g id="patch_1">
   <path d="M 0 151.2 
L 230.4 151.2 
L 230.4 0 
L 0 0 
z
" style="fill: #ffffff"/>
  </g>
  <g id="axes_1">
   <g id="patch_2">
    <path d="M 28.8 134.568 
L 207.36 134.568 
L 207.36 18.144 
L 28.8 18.144 
z
" style="fill: #ffffff"/>
   </g>
   <g id="PathCollection_1">
    <path d="M 36.916364 124.7017 
C 37.717005 124.7017 38.484963 124.383601 39.051102 123.817462 
C 39.617241 123.251323 39.93534 122.483365 39.93534 121.682723 
C 39.93534 120.882082 39.617241 120.114124 39.051102 119.547985 
C 38.484963 118.981846 37.717005 118.663747 36.916364 118.663747 
C 36.115722 118.663747 35.347764 118.981846 34.781625 119.547985 
C 34.215486 120.114124 33.897387 120.882082 33.897387 121.682723 
C 33.897387 122.483365 34.215486 123.251323 34.781625 123.817462 
C 35.347764 124.383601 36.115722 124.7017 36.916364 124.7017 
z
" clip-path="url(#p06126be0f3)" style="fill: #d3d3d3; fill-opacity: 0.35"/>
    <path d="M 40.162909 97.269721 
C 41.194511 97.269721 42.184 96.859862 42.913453 96.130409 
C 43.642905 95.400956 44.052765 94.411467 44.052765 93.379865 
C 44.052765 92.348263 43.642905 91.358774 42.913453 90.629322 
C 42.184 89.899869 41.194511 89.490009 40.162909 89.490009 
C 39.131307 89.490009 38.141818 89.899869 37.412365 90.629322 
C 36.682913 91.358774 36.273053 92.348263 36.273053 93.379865 
C 36.273053 94.411467 36.682913 95.400956 37.412365 96.130409 
C 38.141818 96.859862 39.131307 97.269721 40.162909 97.269721 
z
" clip-path="url(#p06126be0f3)" style="fill: #d3d3d3; fill-opacity: 0.35"/>
    <path d="M 43.409455 83.824035 
C 44.536676 83.824035 45.617882 83.376185 46.414948 82.579119 
C 47.212014 81.782053 47.659864 80.700847 47.659864 79.573625 
C 47.659864 78.446404 47.212014 77.365198 46.414948 76.568132 
C 45.617882 75.771066 44.536676 75.323216 43.409455 75.323216 
C 42.282233 75.323216 41.201027 75.771066 40.403961 76.568132 
C 39.606895 77.365198 39.159045 78.446404 39.159045 79.573625 
C 39.159045 80.700847 39.606895 81.782053 40.403961 82.579119 
C 41.201027 83.376185 42.282233 83.824035 43.409455 83.824035 
z
" clip-path="url(#p06126be0f3)" style="fill: #d3d3d3; fill-opacity: 0.35"/>
    <path d="M 46.656 79.111433 
C 47.814823 79.111433 48.926341 78.651027 49.745753 77.831616 
C 50.565164 77.012204 51.02557 75.900687 51.02557 74.741863 
C 51.02557 73.58304 50.565164 72.471522 49.745753 71.65211 
C 48.926341 70.832699 47.814823 70.372293 46.656 70.372293 
C 45.497177 70.372293 44.385659 70.832699 43.566247 71.65211 
C 42.746836 72.471522 42.28643 73.58304 42.28643 74.741863 
C 42.28643 75.900687 42.746836 77.012204 43.566247 77.831616 
C 44.385659 78.651027 45.497177 79.111433 46.656 79.111433 
z
" clip-path="url(#p06126be0f3)" style="fill: #d3d3d3; fill-opacity: 0.35"/>
    <path d="M 49.902545 61.580092 
C 51.171886 61.580092 52.389409 61.075778 53.286968 60.178218 
C 54.184527 59.280659 54.688842 58.063136 54.688842 56.793796 
C 54.688842 55.524455 54.184527 54.306932 53.286968 53.409373 
C 52.389409 52.511814 51.171886 52.007499 49.902545 52.007499 
C 48.633205 52.007499 47.415682 52.511814 46.518123 53.409373 
C 45.620564 54.306932 45.116249 55.524455 45.116249 56.793796 
C 45.116249 58.063136 45.620564 59.280659 46.518123 60.178218 
C 47.415682 61.075778 48.633205 61.580092 49.902545 61.580092 
z
" clip-path="url(#p06126be0f3)" style="fill: #d3d3d3; fill-opacity: 0.35"/>
    <path d="M 53.149091 45.705168 
C 54.510627 45.705168 55.816581 45.164224 56.779332 44.201472 
C 57.742084 43.238721 58.283028 41.932767 58.283028 40.571231 
C 58.283028 39.209695 57.742084 37.903741 56.779332 36.940989 
C 55.816581 35.978238 54.510627 35.437294 53.149091 35.437294 
C 51.787555 35.437294 50.481601 35.978238 49.518849 36.940989 
C 48.556098 37.903741 48.015154 39.209695 48.015154 40.571231 
C 48.015154 41.932767 48.556098 43.238721 49.518849 44.201472 
C 50.481601 45.164224 51.787555 45.705168 53.149091 45.705168 
z
" clip-path="url(#p06126be0f3)" style="fill: #d3d3d3; fill-opacity: 0.35"/>
    <path d="M 56.395636 45.705168 
C 57.757172 45.705168 59.063127 45.164224 60.025878 44.201472 
C 60.988629 43.238721 61.529573 41.932767 61.529573 40.571231 
C 61.529573 39.209695 60.988629 37.903741 60.025878 36.940989 
C 59.063127 35.978238 57.757172 35.437294 56.395636 35.437294 
C 55.0341 35.437294 53.728146 35.978238 52.765395 36.940989 
C 51.802644 37.903741 51.2617 39.209695 51.2617 40.571231 
C 51.2617 41.932767 51.802644 43.238721 52.765395 44.201472 
C 53.728146 45.164224 55.0341 45.705168 56.395636 45.705168 
z
" clip-path="url(#p06126be0f3)" style="fill: #d3d3d3; fill-opacity: 0.35"/>
    <path d="M 59.642182 32.515634 
C 61.075725 32.515634 62.450746 31.946081 63.464414 30.932413 
C 64.478082 29.918745 65.047635 28.543723 65.047635 27.11018 
C 65.047635 25.676637 64.478082 24.301616 63.464414 23.287948 
C 62.450746 22.27428 61.075725 21.704727 59.642182 21.704727 
C 58.208639 21.704727 56.833617 22.27428 55.819949 23.287948 
C 54.806281 24.301616 54.236729 25.676637 54.236729 27.11018 
C 54.236729 28.543723 54.806281 29.918745 55.819949 30.932413 
C 56.833617 31.946081 58.208639 32.515634 59.642182 32.515634 
z
" clip-path="url(#p06126be0f3)" style="fill: #d3d3d3; fill-opacity: 0.35"/>
    <path d="M 62.888727 130.022717 
C 63.63603 130.022717 64.352827 129.72581 64.88125 129.197387 
C 65.409673 128.668964 65.70658 127.952168 65.70658 127.204864 
C 65.70658 126.457561 65.409673 125.740765 64.88125 125.212342 
C 64.352827 124.683919 63.63603 124.387012 62.888727 124.387012 
C 62.141424 124.387012 61.424628 124.683919 60.896205 125.212342 
C 60.367782 125.740765 60.070875 126.457561 60.070875 127.204864 
C 60.070875 127.952168 60.367782 128.668964 60.896205 129.197387 
C 61.424628 129.72581 62.141424 130.022717 62.888727 130.022717 
z
" clip-path="url(#p06126be0f3)" style="fill: #d3d3d3; fill-opacity: 0.35"/>
    <path d="M 66.135273 107.665417 
C 67.086177 107.665417 67.998264 107.287619 68.670655 106.615227 
C 69.343046 105.942836 69.720845 105.03075 69.720845 104.079845 
C 69.720845 103.128941 69.343046 102.216854 68.670655 101.544463 
C 67.998264 100.872072 67.086177 100.494273 66.135273 100.494273 
C 65.184368 100.494273 64.272282 100.872072 63.599891 101.544463 
C 62.927499 102.216854 62.549701 103.128941 62.549701 104.079845 
C 62.549701 105.03075 62.927499 105.942836 63.599891 106.615227 
C 64.272282 107.287619 65.184368 107.665417 66.135273 107.665417 
z
" clip-path="url(#p06126be0f3)" style="fill: #d3d3d3; fill-opacity: 0.35"/>
    <path d="M 69.381818 104.649657 
C 70.356841 104.649657 71.292061 104.262276 71.981507 103.572831 
C 72.670953 102.883385 73.058333 101.948165 73.058333 100.973142 
C 73.058333 99.998119 72.670953 99.062899 71.981507 98.373453 
C 71.292061 97.684007 70.356841 97.296627 69.381818 97.296627 
C 68.406795 97.296627 67.471575 97.684007 66.782129 98.373453 
C 66.092684 99.062899 65.705303 99.998119 65.705303 100.973142 
C 65.705303 101.948165 66.092684 102.883385 66.782129 103.572831 
C 67.471575 104.262276 68.406795 104.649657 69.381818 104.649657 
z
" clip-path="url(#p06126be0f3)" style="fill: #d3d3d3; fill-opacity: 0.35"/>
    <path d="M 72.628364 95.926945 
C 73.66992 95.926945 74.668958 95.51313 75.40545 94.776638 
C 76.141942 94.040146 76.555757 93.041109 76.555757 91.999552 
C 76.555757 90.957995 76.141942 89.958958 75.40545 89.222466 
C 74.668958 88.485974 73.66992 88.072159 72.628364 88.072159 
C 71.586807 88.072159 70.587769 88.485974 69.851277 89.222466 
C 69.114786 89.958958 68.700971 90.957995 68.700971 91.999552 
C 68.700971 93.041109 69.114786 94.040146 69.851277 94.776638 
C 70.587769 95.51313 71.586807 95.926945 72.628364 95.926945 
z
" clip-path="url(#p06126be0f3)" style="fill: #d3d3d3; fill-opacity: 0.35"/>
    <path d="M 75.874909 83.824035 
C 77.002131 83.824035 78.083336 83.376185 78.880402 82.579119 
C 79.677469 81.782053 80.125319 80.700847 80.125319 79.573625 
C 80.125319 78.446404 79.677469 77.365198 78.880402 76.568132 
C 78.083336 75.771066 77.002131 75.323216 75.874909 75.323216 
C 74.747687 75.323216 73.666482 75.771066 72.869416 76.568132 
C 72.07235 77.365198 71.6245 78.446404 71.6245 79.573625 
C 71.6245 80.700847 72.07235 81.782053 72.869416 82.579119 
C 73.666482 83.376185 74.747687 83.824035 75.874909 83.824035 
z
" clip-path="url(#p06126be0f3)" style="fill: #d3d3d3; fill-opacity: 0.35"/>
    <path d="M 79.121455 54.827678 
C 80.430822 54.827678 81.686737 54.307461 82.612599 53.381598 
C 83.538461 52.455736 84.058678 51.199821 84.058678 49.890454 
C 84.058678 48.581087 83.538461 47.325172 82.612599 46.399309 
C 81.686737 45.473447 80.430822 44.95323 79.121455 44.95323 
C 77.812087 44.95323 76.556172 45.473447 75.63031 46.399309 
C 74.704448 47.325172 74.184231 48.581087 74.184231 49.890454 
C 74.184231 51.199821 74.704448 52.455736 75.63031 53.381598 
C 76.556172 54.307461 77.812087 54.827678 79.121455 54.827678 
z
" clip-path="url(#p06126be0f3)" style="fill: #d3d3d3; fill-opacity: 0.35"/>
    <path d="M 82.368 56.347474 
C 83.668468 56.347474 84.915847 55.830792 85.835417 54.911223 
C 86.754987 53.991653 87.271668 52.744274 87.271668 51.443806 
C 87.271668 50.143338 86.754987 48.895958 85.835417 47.976389 
C 84.915847 47.056819 83.668468 46.540138 82.368 46.540138 
C 81.067532 46.540138 79.820153 47.056819 78.900583 47.976389 
C 77.981013 48.895958 77.464332 50.143338 77.464332 51.443806 
C 77.464332 52.744274 77.981013 53.991653 78.900583 54.911223 
C 79.820153 55.830792 81.067532 56.347474 82.368 56.347474 
z
" clip-path="url(#p06126be0f3)" style="fill: #d3d3d3; fill-opacity: 0.35"/>
    <path d="M 85.614545 46.71925 
C 86.970383 46.71925 88.270872 46.18057 89.229595 45.221848 
C 90.188317 44.263126 90.726997 42.962637 90.726997 41.606799 
C 90.726997 40.250961 90.188317 38.950472 89.229595 37.99175 
C 88.270872 37.033027 86.970383 36.494347 85.614545 36.494347 
C 84.258707 36.494347 82.958219 37.033027 81.999496 37.99175 
C 81.040774 38.950472 80.502094 40.250961 80.502094 41.606799 
C 80.502094 42.962637 81.040774 44.263126 81.999496 45.221848 
C 82.958219 46.18057 84.258707 46.71925 85.614545 46.71925 
z
" clip-path="url(#p06126be0f3)" style="fill: #d3d3d3; fill-opacity: 0.35"/>
    <path d="M 88.861091 35.560898 
C 90.27834 35.560898 91.637733 34.997819 92.639879 33.995672 
C 93.642026 32.993526 94.205105 31.634133 94.205105 30.216884 
C 94.205105 28.799635 93.642026 27.440242 92.639879 26.438095 
C 91.637733 25.435949 90.27834 24.87287 88.861091 24.87287 
C 87.443842 24.87287 86.084449 25.435949 85.082302 26.438095 
C 84.080156 27.440242 83.517077 28.799635 83.517077 30.216884 
C 83.517077 31.634133 84.080156 32.993526 85.082302 33.995672 
C 86.084449 34.997819 87.443842 35.560898 88.861091 35.560898 
z
" clip-path="url(#p06126be0f3)" style="fill: #d3d3d3; fill-opacity: 0.35"/>
    <path d="M 92.107636 38.266765 
C 93.510245 38.266765 94.855596 37.709503 95.847391 36.717709 
C 96.839185 35.725914 97.396448 34.380563 97.396448 32.977954 
C 97.396448 31.575345 96.839185 30.229995 95.847391 29.2382 
C 94.855596 28.246406 93.510245 27.689143 92.107636 27.689143 
C 90.705027 27.689143 89.359677 28.246406 88.367882 29.2382 
C 87.376088 30.229995 86.818825 31.575345 86.818825 32.977954 
C 86.818825 34.380563 87.376088 35.725914 88.367882 36.717709 
C 89.359677 37.709503 90.705027 38.266765 92.107636 38.266765 
z
" clip-path="url(#p06126be0f3)" style="fill: #d3d3d3; fill-opacity: 0.35"/>
    <path d="M 95.354182 105.990276 
C 96.31856 105.990276 97.24357 105.607124 97.925488 104.925206 
C 98.607407 104.243287 98.990559 103.318277 98.990559 102.353899 
C 98.990559 101.389521 98.607407 100.464511 97.925488 99.782592 
C 97.24357 99.100674 96.31856 98.717522 95.354182 98.717522 
C 94.389803 98.717522 93.464794 99.100674 92.782875 99.782592 
C 92.100957 100.464511 91.717805 101.389521 91.717805 102.353899 
C 91.717805 103.318277 92.100957 104.243287 92.782875 104.925206 
C 93.464794 105.607124 94.389803 105.990276 95.354182 105.990276 
z
" clip-path="url(#p06126be0f3)" style="fill: #d3d3d3; fill-opacity: 0.35"/>
    <path d="M 98.600727 105.990276 
C 99.565106 105.990276 100.490115 105.607124 101.172034 104.925206 
C 101.853952 104.243287 102.237104 103.318277 102.237104 102.353899 
C 102.237104 101.389521 101.853952 100.464511 101.172034 99.782592 
C 100.490115 99.100674 99.565106 98.717522 98.600727 98.717522 
C 97.636349 98.717522 96.711339 99.100674 96.029421 99.782592 
C 95.347502 100.464511 94.964351 101.389521 94.964351 102.353899 
C 94.964351 103.318277 95.347502 104.243287 96.029421 104.925206 
C 96.711339 105.607124 97.636349 105.990276 98.600727 105.990276 
z
" clip-path="url(#p06126be0f3)" style="fill: #d3d3d3; fill-opacity: 0.35"/>
    <path d="M 101.847273 90.551085 
C 102.927741 90.551085 103.964102 90.12181 104.728109 89.357803 
C 105.492116 88.593797 105.92139 87.557436 105.92139 86.476967 
C 105.92139 85.396499 105.492116 84.360138 104.728109 83.596131 
C 103.964102 82.832124 102.927741 82.40285 101.847273 82.40285 
C 100.766804 82.40285 99.730443 82.832124 98.966437 83.596131 
C 98.20243 84.360138 97.773155 85.396499 97.773155 86.476967 
C 97.773155 87.557436 98.20243 88.593797 98.966437 89.357803 
C 99.730443 90.12181 100.766804 90.551085 101.847273 90.551085 
z
" clip-path="url(#p06126be0f3)" style="fill: #d3d3d3; fill-opacity: 0.35"/>
    <path d="M 105.093818 77.427272 
C 106.263723 77.427272 107.385869 76.962463 108.213117 76.135216 
C 109.040365 75.307968 109.505173 74.185822 109.505173 73.015917 
C 109.505173 71.846012 109.040365 70.723865 108.213117 69.896618 
C 107.385869 69.06937 106.263723 68.604562 105.093818 68.604562 
C 103.923913 68.604562 102.801767 69.06937 101.974519 69.896618 
C 101.147271 70.723865 100.682463 71.846012 100.682463 73.015917 
C 100.682463 74.185822 101.147271 75.307968 101.974519 76.135216 
C 102.801767 76.962463 103.923913 77.427272 105.093818 77.427272 
z
" clip-path="url(#p06126be0f3)" style="fill: #d3d3d3; fill-opacity: 0.35"/>
    <path d="M 108.340364 78.437816 
C 109.503632 78.437816 110.619413 77.975645 111.441969 77.153089 
C 112.264524 76.330534 112.726695 75.214753 112.726695 74.051484 
C 112.726695 72.888216 112.264524 71.772435 111.441969 70.94988 
C 110.619413 70.127324 109.503632 69.665153 108.340364 69.665153 
C 107.177095 69.665153 106.061314 70.127324 105.238759 70.94988 
C 104.416204 71.772435 103.954032 72.888216 103.954032 74.051484 
C 103.954032 75.214753 104.416204 76.330534 105.238759 77.153089 
C 106.061314 77.975645 107.177095 78.437816 108.340364 78.437816 
z
" clip-path="url(#p06126be0f3)" style="fill: #d3d3d3; fill-opacity: 0.35"/>
    <path d="M 111.586909 65.122966 
C 112.834723 65.122966 114.031598 64.627204 114.913936 63.744866 
C 115.796274 62.862528 116.292035 61.665653 116.292035 60.417839 
C 116.292035 59.170025 115.796274 57.97315 114.913936 57.090813 
C 114.031598 56.208475 112.834723 55.712713 111.586909 55.712713 
C 110.339095 55.712713 109.14222 56.208475 108.259882 57.090813 
C 107.377544 57.97315 106.881783 59.170025 106.881783 60.417839 
C 106.881783 61.665653 107.377544 62.862528 108.259882 63.744866 
C 109.14222 64.627204 110.339095 65.122966 111.586909 65.122966 
z
" clip-path="url(#p06126be0f3)" style="fill: #d3d3d3; fill-opacity: 0.35"/>
    <path d="M 114.833455 49.929474 
C 116.171091 49.929474 117.454122 49.398025 118.399974 48.452173 
C 119.345826 47.506321 119.877275 46.22329 119.877275 44.885653 
C 119.877275 43.548016 119.345826 42.264986 118.399974 41.319134 
C 117.454122 40.373281 116.171091 39.841833 114.833455 39.841833 
C 113.495818 39.841833 112.212787 40.373281 111.266935 41.319134 
C 110.321083 42.264986 109.789634 43.548016 109.789634 44.885653 
C 109.789634 46.22329 110.321083 47.506321 111.266935 48.452173 
C 112.212787 49.398025 113.495818 49.929474 114.833455 49.929474 
z
" clip-path="url(#p06126be0f3)" style="fill: #d3d3d3; fill-opacity: 0.35"/>
    <path d="M 118.08 42.831886 
C 119.45755 42.831886 120.778864 42.284579 121.752939 41.310505 
C 122.727014 40.33643 123.27432 39.015116 123.27432 37.637566 
C 123.27432 36.260016 122.727014 34.938702 121.752939 33.964627 
C 120.778864 32.990552 119.45755 32.443246 118.08 32.443246 
C 116.70245 32.443246 115.381136 32.990552 114.407061 33.964627 
C 113.432986 34.938702 112.88568 36.260016 112.88568 37.637566 
C 112.88568 39.015116 113.432986 40.33643 114.407061 41.310505 
C 115.381136 42.284579 116.70245 42.831886 118.08 42.831886 
z
" clip-path="url(#p06126be0f3)" style="fill: #d3d3d3; fill-opacity: 0.35"/>
    <path d="M 121.326545 41.986542 
C 122.708771 41.986542 124.034569 41.437378 125.01195 40.459997 
C 125.989331 39.482617 126.538495 38.156818 126.538495 36.774593 
C 126.538495 35.392368 125.989331 34.066569 125.01195 33.089188 
C 124.034569 32.111807 122.708771 31.562643 121.326545 31.562643 
C 119.94432 31.562643 118.618522 32.111807 117.641141 33.089188 
C 116.66376 34.066569 116.114596 35.392368 116.114596 36.774593 
C 116.114596 38.156818 116.66376 39.482617 117.641141 40.459997 
C 118.618522 41.437378 119.94432 41.986542 121.326545 41.986542 
z
" clip-path="url(#p06126be0f3)" style="fill: #d3d3d3; fill-opacity: 0.35"/>
    <path d="M 124.573091 113.354377 
C 125.476691 113.354377 126.343404 112.995372 126.982346 112.35643 
C 127.621288 111.717489 127.980292 110.850776 127.980292 109.947176 
C 127.980292 109.043575 127.621288 108.176862 126.982346 107.537921 
C 126.343404 106.898979 125.476691 106.539975 124.573091 106.539975 
C 123.669491 106.539975 122.802778 106.898979 122.163836 107.537921 
C 121.524894 108.176862 121.16589 109.043575 121.16589 109.947176 
C 121.16589 110.850776 121.524894 111.717489 122.163836 112.35643 
C 122.802778 112.995372 123.669491 113.354377 124.573091 113.354377 
z
" clip-path="url(#p06126be0f3)" style="fill: #d3d3d3; fill-opacity: 0.35"/>
    <path d="M 127.819636 99.45165 
C 128.834848 99.45165 129.808616 99.048302 130.526479 98.330438 
C 131.244342 97.612575 131.64769 96.638807 131.64769 95.623596 
C 131.64769 94.608384 131.244342 93.634616 130.526479 92.916753 
C 129.808616 92.198889 128.834848 91.795541 127.819636 91.795541 
C 126.804425 91.795541 125.830657 92.198889 125.112793 92.916753 
C 124.39493 93.634616 123.991582 94.608384 123.991582 95.623596 
C 123.991582 96.638807 124.39493 97.612575 125.112793 98.330438 
C 125.830657 99.048302 126.804425 99.45165 127.819636 99.45165 
z
" clip-path="url(#p06126be0f3)" style="fill: #d3d3d3; fill-opacity: 0.35"/>
    <path d="M 131.066182 77.090392 
C 132.238291 77.090392 133.36255 76.624708 134.191357 75.795902 
C 135.020163 74.967096 135.485846 73.842836 135.485846 72.670727 
C 135.485846 71.498619 135.020163 70.374359 134.191357 69.545553 
C 133.36255 68.716747 132.238291 68.251063 131.066182 68.251063 
C 129.894073 68.251063 128.769813 68.716747 127.941007 69.545553 
C 127.112201 70.374359 126.646517 71.498619 126.646517 72.670727 
C 126.646517 73.842836 127.112201 74.967096 127.941007 75.795902 
C 128.769813 76.624708 129.894073 77.090392 131.066182 77.090392 
z
" clip-path="url(#p06126be0f3)" style="fill: #d3d3d3; fill-opacity: 0.35"/>
    <path d="M 134.312727 60.567467 
C 135.588152 60.567467 136.811511 60.060735 137.713373 59.158873 
C 138.615234 58.257012 139.121966 57.033653 139.121966 55.758228 
C 139.121966 54.482803 138.615234 53.259444 137.713373 52.357582 
C 136.811511 51.455721 135.588152 50.948989 134.312727 50.948989 
C 133.037302 50.948989 131.813944 51.455721 130.912082 52.357582 
C 130.01022 53.259444 129.503488 54.482803 129.503488 55.758228 
C 129.503488 57.033653 130.01022 58.257012 130.912082 59.158873 
C 131.813944 60.060735 133.037302 60.567467 134.312727 60.567467 
z
" clip-path="url(#p06126be0f3)" style="fill: #d3d3d3; fill-opacity: 0.35"/>
    <path d="M 137.559273 57.866604 
C 138.850783 57.866604 140.08957 57.353482 141.002805 56.440246 
C 141.916041 55.527011 142.429163 54.288224 142.429163 52.996714 
C 142.429163 51.705204 141.916041 50.466417 141.002805 49.553181 
C 140.08957 48.639945 138.850783 48.126823 137.559273 48.126823 
C 136.267763 48.126823 135.028976 48.639945 134.11574 49.553181 
C 133.202505 50.466417 132.689382 51.705204 132.689382 52.996714 
C 132.689382 54.288224 133.202505 55.527011 134.11574 56.440246 
C 135.028976 57.353482 136.267763 57.866604 137.559273 57.866604 
z
" clip-path="url(#p06126be0f3)" style="fill: #d3d3d3; fill-opacity: 0.35"/>
    <path d="M 140.805818 56.685175 
C 142.1043 56.685175 143.349775 56.169282 144.26794 55.251117 
C 145.186106 54.332951 145.701998 53.087477 145.701998 51.788995 
C 145.701998 50.490513 145.186106 49.245038 144.26794 48.326873 
C 143.349775 47.408707 142.1043 46.892815 140.805818 46.892815 
C 139.507336 46.892815 138.261862 47.408707 137.343696 48.326873 
C 136.425531 49.245038 135.909638 50.490513 135.909638 51.788995 
C 135.909638 53.087477 136.425531 54.332951 137.343696 55.251117 
C 138.261862 56.169282 139.507336 56.685175 140.805818 56.685175 
z
" clip-path="url(#p06126be0f3)" style="fill: #d3d3d3; fill-opacity: 0.35"/>
    <path d="M 144.052364 40.127012 
C 145.444817 40.127012 146.780426 39.573784 147.765039 38.589171 
C 148.749652 37.604558 149.30288 36.268949 149.30288 34.876495 
C 149.30288 33.484042 148.749652 32.148433 147.765039 31.16382 
C 146.780426 30.179207 145.444817 29.625979 144.052364 29.625979 
C 142.65991 29.625979 141.324301 30.179207 140.339688 31.16382 
C 139.355075 32.148433 138.801847 33.484042 138.801847 34.876495 
C 138.801847 36.268949 139.355075 37.604558 140.339688 38.589171 
C 141.324301 39.573784 142.65991 40.127012 144.052364 40.127012 
z
" clip-path="url(#p06126be0f3)" style="fill: #d3d3d3; fill-opacity: 0.35"/>
    <path d="M 147.298909 132.014613 
C 148.025198 132.014613 148.721837 131.726055 149.235401 131.212492 
C 149.748964 130.698928 150.037522 130.002289 150.037522 129.276 
C 150.037522 128.549711 149.748964 127.853072 149.235401 127.339508 
C 148.721837 126.825945 148.025198 126.537387 147.298909 126.537387 
C 146.57262 126.537387 145.875981 126.825945 145.362417 127.339508 
C 144.848854 127.853072 144.560296 128.549711 144.560296 129.276 
C 144.560296 130.002289 144.848854 130.698928 145.362417 131.212492 
C 145.875981 131.726055 146.57262 132.014613 147.298909 132.014613 
z
" clip-path="url(#p06126be0f3)" style="fill: #d3d3d3; fill-opacity: 0.35"/>
    <path d="M 150.545455 108.837153 
C 151.486817 108.837153 152.38975 108.463146 153.055393 107.797503 
C 153.721037 107.131859 154.095044 106.228926 154.095044 105.287564 
C 154.095044 104.346202 153.721037 103.443269 153.055393 102.777626 
C 152.38975 102.111982 151.486817 101.737975 150.545455 101.737975 
C 149.604093 101.737975 148.70116 102.111982 148.035516 102.777626 
C 147.369873 103.443269 146.995865 104.346202 146.995865 105.287564 
C 146.995865 106.228926 147.369873 107.131859 148.035516 107.797503 
C 148.70116 108.463146 149.604093 108.837153 150.545455 108.837153 
z
" clip-path="url(#p06126be0f3)" style="fill: #d3d3d3; fill-opacity: 0.35"/>
    <path d="M 153.792 108.837153 
C 154.733362 108.837153 155.636295 108.463146 156.301938 107.797503 
C 156.967582 107.131859 157.341589 106.228926 157.341589 105.287564 
C 157.341589 104.346202 156.967582 103.443269 156.301938 102.777626 
C 155.636295 102.111982 154.733362 101.737975 153.792 101.737975 
C 152.850638 101.737975 151.947705 102.111982 151.282062 102.777626 
C 150.616418 103.443269 150.242411 104.346202 150.242411 105.287564 
C 150.242411 106.228926 150.616418 107.131859 151.282062 107.797503 
C 151.947705 108.463146 152.850638 108.837153 153.792 108.837153 
z
" clip-path="url(#p06126be0f3)" style="fill: #d3d3d3; fill-opacity: 0.35"/>
    <path d="M 157.038545 101.632132 
C 158.037101 101.632132 158.994894 101.235402 159.700979 100.529316 
C 160.407065 99.82323 160.803796 98.865438 160.803796 97.866882 
C 160.803796 96.868326 160.407065 95.910534 159.700979 95.204448 
C 158.994894 94.498362 158.037101 94.101632 157.038545 94.101632 
C 156.039989 94.101632 155.082197 94.498362 154.376112 95.204448 
C 153.670026 95.910534 153.273295 96.868326 153.273295 97.866882 
C 153.273295 98.865438 153.670026 99.82323 154.376112 100.529316 
C 155.082197 101.235402 156.039989 101.632132 157.038545 101.632132 
z
" clip-path="url(#p06126be0f3)" style="fill: #d3d3d3; fill-opacity: 0.35"/>
    <path d="M 160.285091 58.03543 
C 161.575602 58.03543 162.81343 57.522705 163.725959 56.610176 
C 164.638488 55.697647 165.151213 54.459819 165.151213 53.169308 
C 165.151213 51.878798 164.638488 50.640969 163.725959 49.72844 
C 162.81343 48.815912 161.575602 48.303186 160.285091 48.303186 
C 158.99458 48.303186 157.756752 48.815912 156.844223 49.72844 
C 155.931694 50.640969 155.418969 51.878798 155.418969 53.169308 
C 155.418969 54.459819 155.931694 55.697647 156.844223 56.610176 
C 157.756752 57.522705 158.99458 58.03543 160.285091 58.03543 
z
" clip-path="url(#p06126be0f3)" style="fill: #d3d3d3; fill-opacity: 0.35"/>
    <path d="M 163.531636 43.67717 
C 164.904495 43.67717 166.221309 43.131727 167.192067 42.16097 
C 168.162825 41.190212 168.708267 39.873397 168.708267 38.500539 
C 168.708267 37.127681 168.162825 35.810866 167.192067 34.840108 
C 166.221309 33.869351 164.904495 33.323908 163.531636 33.323908 
C 162.158778 33.323908 160.841963 33.869351 159.871206 34.840108 
C 158.900448 35.810866 158.355006 37.127681 158.355006 38.500539 
C 158.355006 39.873397 158.900448 41.190212 159.871206 42.16097 
C 160.841963 43.131727 162.158778 43.67717 163.531636 43.67717 
z
" clip-path="url(#p06126be0f3)" style="fill: #d3d3d3; fill-opacity: 0.35"/>
    <path d="M 166.778182 30.993176 
C 168.2198 30.993176 169.602568 30.420415 170.621946 29.401037 
C 171.641324 28.381659 172.214086 26.998891 172.214086 25.557272 
C 172.214086 24.115654 171.641324 22.732886 170.621946 21.713508 
C 169.602568 20.69413 168.2198 20.121369 166.778182 20.121369 
C 165.336563 20.121369 163.953796 20.69413 162.934417 21.713508 
C 161.915039 22.732886 161.342278 24.115654 161.342278 25.557272 
C 161.342278 26.998891 161.915039 28.381659 162.934417 29.401037 
C 163.953796 30.420415 165.336563 30.993176 166.778182 30.993176 
z
" clip-path="url(#p06126be0f3)" style="fill: #d3d3d3; fill-opacity: 0.35"/>
    <path d="M 170.024727 116.028624 
C 170.905184 116.028624 171.749698 115.678815 172.372275 115.056238 
C 172.994852 114.433661 173.344661 113.589147 173.344661 112.70869 
C 173.344661 111.828233 172.994852 110.983719 172.372275 110.361142 
C 171.749698 109.738565 170.905184 109.388756 170.024727 109.388756 
C 169.14427 109.388756 168.299756 109.738565 167.677179 110.361142 
C 167.054602 110.983719 166.704793 111.828233 166.704793 112.70869 
C 166.704793 113.589147 167.054602 114.433661 167.677179 115.056238 
C 168.299756 115.678815 169.14427 116.028624 170.024727 116.028624 
z
" clip-path="url(#p06126be0f3)" style="fill: #d3d3d3; fill-opacity: 0.35"/>
    <path d="M 173.271273 113.354377 
C 174.174873 113.354377 175.041586 112.995372 175.680528 112.35643 
C 176.31947 111.717489 176.678474 110.850776 176.678474 109.947176 
C 176.678474 109.043575 176.31947 108.176862 175.680528 107.537921 
C 175.041586 106.898979 174.174873 106.539975 173.271273 106.539975 
C 172.367672 106.539975 171.50096 106.898979 170.862018 107.537921 
C 170.223076 108.176862 169.864072 109.043575 169.864072 109.947176 
C 169.864072 110.850776 170.223076 111.717489 170.862018 112.35643 
C 171.50096 112.995372 172.367672 113.354377 173.271273 113.354377 
z
" clip-path="url(#p06126be0f3)" style="fill: #d3d3d3; fill-opacity: 0.35"/>
    <path d="M 176.517818 89.206193 
C 177.607798 89.206193 178.653283 88.77314 179.424015 88.002407 
C 180.194748 87.231675 180.627801 86.18619 180.627801 85.09621 
C 180.627801 84.00623 180.194748 82.960746 179.424015 82.190013 
C 178.653283 81.419281 177.607798 80.986227 176.517818 80.986227 
C 175.427838 80.986227 174.382354 81.419281 173.611621 82.190013 
C 172.840889 82.960746 172.407835 84.00623 172.407835 85.09621 
C 172.407835 86.18619 172.840889 87.231675 173.611621 88.002407 
C 174.382354 88.77314 175.427838 89.206193 176.517818 89.206193 
z
" clip-path="url(#p06126be0f3)" style="fill: #d3d3d3; fill-opacity: 0.35"/>
    <path d="M 179.764364 86.179498 
C 180.875445 86.179498 181.941168 85.738061 182.726821 84.952408 
C 183.512474 84.166755 183.953911 83.101031 183.953911 81.98995 
C 183.953911 80.878869 183.512474 79.813146 182.726821 79.027493 
C 181.941168 78.24184 180.875445 77.800403 179.764364 77.800403 
C 178.653283 77.800403 177.587559 78.24184 176.801906 79.027493 
C 176.016253 79.813146 175.574816 80.878869 175.574816 81.98995 
C 175.574816 83.101031 176.016253 84.166755 176.801906 84.952408 
C 177.587559 85.738061 178.653283 86.179498 179.764364 86.179498 
z
" clip-path="url(#p06126be0f3)" style="fill: #d3d3d3; fill-opacity: 0.35"/>
    <path d="M 183.010909 82.983021 
C 184.143837 82.983021 185.230515 82.532904 186.031616 81.731803 
C 186.832717 80.930702 187.282834 79.844024 187.282834 78.711096 
C 187.282834 77.578168 186.832717 76.49149 186.031616 75.690389 
C 185.230515 74.889288 184.143837 74.439171 183.010909 74.439171 
C 181.877981 74.439171 180.791303 74.889288 179.990202 75.690389 
C 179.189101 76.49149 178.738984 77.578168 178.738984 78.711096 
C 178.738984 79.844024 179.189101 80.930702 179.990202 81.731803 
C 180.791303 82.532904 181.877981 82.983021 183.010909 82.983021 
z
" clip-path="url(#p06126be0f3)" style="fill: #d3d3d3; fill-opacity: 0.35"/>
    <path d="M 186.257455 82.983021 
C 187.390382 82.983021 188.477061 82.532904 189.278162 81.731803 
C 190.079262 80.930702 190.529379 79.844024 190.529379 78.711096 
C 190.529379 77.578168 190.079262 76.49149 189.278162 75.690389 
C 188.477061 74.889288 187.390382 74.439171 186.257455 74.439171 
C 185.124527 74.439171 184.037848 74.889288 183.236748 75.690389 
C 182.435647 76.49149 181.98553 77.578168 181.98553 78.711096 
C 181.98553 79.844024 182.435647 80.930702 183.236748 81.731803 
C 184.037848 82.532904 185.124527 82.983021 186.257455 82.983021 
z
" clip-path="url(#p06126be0f3)" style="fill: #d3d3d3; fill-opacity: 0.35"/>
    <path d="M 189.504 73.552663 
C 190.699 73.552663 191.845216 73.077885 192.690209 72.232892 
C 193.535201 71.3879 194.009979 70.241683 194.009979 69.046684 
C 194.009979 67.851684 193.535201 66.705467 192.690209 65.860475 
C 191.845216 65.015483 190.699 64.540704 189.504 64.540704 
C 188.309 64.540704 187.162784 65.015483 186.317791 65.860475 
C 185.472799 66.705467 184.998021 67.851684 184.998021 69.046684 
C 184.998021 70.241683 185.472799 71.3879 186.317791 72.232892 
C 187.162784 73.077885 188.309 73.552663 189.504 73.552663 
z
" clip-path="url(#p06126be0f3)" style="fill: #d3d3d3; fill-opacity: 0.35"/>
    <path d="M 192.750545 56.178619 
C 194.052005 56.178619 195.300336 55.661543 196.220607 54.741272 
C 197.140878 53.821001 197.657953 52.572671 197.657953 51.271211 
C 197.657953 49.969751 197.140878 48.721421 196.220607 47.80115 
C 195.300336 46.880879 194.052005 46.363803 192.750545 46.363803 
C 191.449086 46.363803 190.200755 46.880879 189.280484 47.80115 
C 188.360213 48.721421 187.843138 49.969751 187.843138 51.271211 
C 187.843138 52.572671 188.360213 53.821001 189.280484 54.741272 
C 190.200755 55.661543 191.449086 56.178619 192.750545 56.178619 
z
" clip-path="url(#p06126be0f3)" style="fill: #d3d3d3; fill-opacity: 0.35"/>
    <path d="M 195.997091 38.43589 
C 197.39878 38.43589 198.743248 37.878993 199.734392 36.88785 
C 200.725535 35.896706 201.282432 34.552238 201.282432 33.150549 
C 201.282432 31.74886 200.725535 30.404392 199.734392 29.413248 
C 198.743248 28.422105 197.39878 27.865208 195.997091 27.865208 
C 194.595402 27.865208 193.250934 28.422105 192.25979 29.413248 
C 191.268647 30.404392 190.71175 31.74886 190.71175 33.150549 
C 190.71175 34.552238 191.268647 35.896706 192.25979 36.88785 
C 193.250934 37.878993 194.595402 38.43589 195.997091 38.43589 
z
" clip-path="url(#p06126be0f3)" style="fill: #d3d3d3; fill-opacity: 0.35"/>
    <path d="M 199.243636 28.913226 
C 200.696214 28.913226 202.089493 28.336111 203.11662 27.308983 
C 204.143747 26.281856 204.720862 24.888577 204.720862 23.436 
C 204.720862 21.983423 204.143747 20.590144 203.11662 19.563017 
C 202.089493 18.535889 200.696214 17.958774 199.243636 17.958774 
C 197.791059 17.958774 196.39778 18.535889 195.370653 19.563017 
C 194.343526 20.590144 193.766411 21.983423 193.766411 23.436 
C 193.766411 24.888577 194.343526 26.281856 195.370653 27.308983 
C 196.39778 28.336111 197.791059 28.913226 199.243636 28.913226 
z
" clip-path="url(#p06126be0f3)" style="fill: #d3d3d3; fill-opacity: 0.35"/>
   </g>
   <g id="line2d_1">
    <path d="M 36.916364 117.970321 
L 37.459264 115.703842 
L 38.545065 107.457516 
L 39.630867 98.541379 
L 40.716668 91.523568 
L 41.802469 86.448686 
L 42.88827 82.125433 
L 43.431171 80.383241 
L 43.974071 79.036906 
L 45.059872 77.104066 
L 45.602773 76.171004 
L 46.145673 74.995486 
L 46.688574 73.347368 
L 47.774375 68.445692 
L 51.574679 48.480066 
L 52.66048 43.678453 
L 53.203381 42.0334 
L 53.746282 41.095048 
L 54.289182 40.702234 
L 55.374983 40.409615 
L 55.917884 40.002566 
L 56.460784 39.104581 
L 57.003685 37.626632 
L 58.089486 33.835355 
L 58.632387 32.741585 
L 59.175287 33.984285 
L 59.718188 39.409616 
L 60.261088 49.739407 
L 61.34689 79.481657 
L 62.432691 107.636262 
L 62.975591 115.933743 
L 63.518492 118.927993 
L 64.061393 117.883024 
L 65.147194 111.372418 
L 65.690094 108.169009 
L 66.232995 105.692343 
L 66.775895 104.072255 
L 67.318796 103.100346 
L 68.947498 101.11225 
L 69.490398 100.180216 
L 70.576199 97.625193 
L 72.204901 93.002861 
L 73.290702 89.362557 
L 74.919404 82.96585 
L 75.462305 80.296387 
L 76.005205 76.975278 
L 77.091006 68.346295 
L 78.176808 59.019235 
L 78.719708 55.151922 
L 79.262609 52.466655 
L 79.805509 51.09781 
L 80.34841 50.695203 
L 81.434211 50.815591 
L 81.977112 50.663901 
L 82.520012 50.082386 
L 83.062913 49.022791 
L 84.148714 46.027947 
L 86.320316 39.089598 
L 87.949018 33.662431 
L 88.491919 32.283783 
L 89.034819 31.449375 
L 89.57772 31.208743 
L 90.12062 31.429938 
L 90.663521 32.04652 
L 91.206421 33.405537 
L 91.749322 36.388058 
L 92.292223 41.945026 
L 92.835123 50.259197 
L 95.006725 90.975886 
L 95.549626 97.20778 
L 96.092527 100.574946 
L 96.635427 101.894842 
L 97.178328 102.203745 
L 97.721228 102.044101 
L 98.264129 101.428902 
L 98.807029 100.186813 
L 99.34993 98.291581 
L 100.978632 90.769864 
L 102.607334 83.386316 
L 104.236035 76.862104 
L 104.778936 75.201088 
L 105.321836 74.11047 
L 105.864737 73.609429 
L 106.407638 73.50954 
L 107.493439 73.48284 
L 108.036339 73.046593 
L 108.57924 72.032249 
L 109.12214 70.422643 
L 110.207942 66.184108 
L 112.379544 56.582812 
L 114.551146 46.769395 
L 115.636947 43.279155 
L 116.722749 40.710115 
L 117.80855 38.662416 
L 118.35145 37.984744 
L 118.894351 37.569974 
L 119.437251 37.382297 
L 119.980152 37.549087 
L 120.523053 38.656976 
L 121.065953 41.790305 
L 121.608854 47.901362 
L 122.151754 56.955333 
L 123.780456 90.073566 
L 124.323357 98.365932 
L 124.866257 103.130157 
L 125.409158 104.421305 
L 125.952058 103.408384 
L 127.03786 98.860605 
L 128.123661 92.940053 
L 129.752362 81.988286 
L 131.381064 71.397003 
L 133.009766 62.637727 
L 134.095567 57.90446 
L 134.638468 56.322389 
L 135.181368 55.294658 
L 136.267169 54.116663 
L 137.352971 53.285626 
L 138.438772 52.696832 
L 139.524573 52.165592 
L 140.067473 51.661397 
L 140.610374 50.696792 
L 141.153275 49.085023 
L 142.781976 42.216964 
L 143.324877 41.574409 
L 143.867777 44.231303 
L 144.410678 51.50114 
L 144.953579 63.056078 
L 146.58228 105.291992 
L 147.125181 115.152905 
L 147.668081 120.092036 
L 148.210982 120.482799 
L 148.753883 118.074984 
L 150.382584 108.358134 
L 150.925485 106.566278 
L 151.468386 105.690992 
L 152.011286 105.371884 
L 153.097087 105.083837 
L 153.639988 104.7008 
L 154.182888 104.007214 
L 155.26869 101.836702 
L 155.81159 100.398745 
L 156.354491 98.37878 
L 156.897391 95.195655 
L 157.440292 90.440414 
L 158.526093 77.291733 
L 159.611894 63.297577 
L 160.154795 57.411622 
L 160.697695 52.795288 
L 161.783497 46.50512 
L 163.955099 36.896994 
L 165.0409 32.62603 
L 165.583801 31.084661 
L 166.126701 31.131926 
L 166.669602 34.397703 
L 167.212502 41.936824 
L 168.298303 66.554105 
L 169.384105 92.7961 
L 169.927005 102.42302 
L 170.469906 108.198798 
L 171.012806 110.626104 
L 171.555707 111.104763 
L 172.098607 110.727542 
L 172.641508 109.798691 
L 173.184409 108.111169 
L 173.727309 105.468924 
L 174.81311 98.113612 
L 175.898912 90.513086 
L 176.441812 87.584492 
L 176.984713 85.595141 
L 177.527613 84.407091 
L 178.613414 83.098568 
L 182.413718 79.420197 
L 182.956619 79.06146 
L 184.04242 78.747691 
L 185.128221 78.629726 
L 185.671122 78.393869 
L 186.214022 77.828153 
L 186.756923 76.839444 
L 187.842724 73.957456 
L 188.928525 70.488974 
L 190.014327 65.939625 
L 191.643028 57.329688 
L 195.986233 34.010097 
L 197.072034 30.017257 
L 198.157835 26.79182 
L 198.700736 25.488415 
L 199.243636 24.710233 
L 199.243636 24.710233 
" clip-path="url(#p06126be0f3)" style="fill: none; stroke-dasharray: 4.44,1.92; stroke-dashoffset: 0; stroke: #000000; stroke-width: 1.2"/>
   </g>
   <g id="PathCollection_2">
    <path d="M 36.916364 124.147707 
C 37.570085 124.147707 38.19712 123.887981 38.65937 123.42573 
C 39.121621 122.963479 39.381347 122.336445 39.381347 121.682723 
C 39.381347 121.029002 39.121621 120.401967 38.65937 119.939717 
C 38.19712 119.477466 37.570085 119.21774 36.916364 119.21774 
C 36.262642 119.21774 35.635608 119.477466 35.173357 119.939717 
C 34.711106 120.401967 34.45138 121.029002 34.45138 121.682723 
C 34.45138 122.336445 34.711106 122.963479 35.173357 123.42573 
C 35.635608 123.887981 36.262642 124.147707 36.916364 124.147707 
z
" clip-path="url(#p06126be0f3)" style="fill: #683d77; fill-opacity: 0.95; stroke: #000000; stroke-opacity: 0.95; stroke-width: 0.6"/>
    <path d="M 40.162909 96.55592 
C 41.005209 96.55592 41.813123 96.22127 42.408719 95.625675 
C 43.004314 95.030079 43.338963 94.222165 43.338963 93.379865 
C 43.338963 92.537566 43.004314 91.729651 42.408719 91.134056 
C 41.813123 90.53846 41.005209 90.203811 40.162909 90.203811 
C 39.32061 90.203811 38.512695 90.53846 37.9171 91.134056 
C 37.321504 91.729651 36.986855 92.537566 36.986855 93.379865 
C 36.986855 94.222165 37.321504 95.030079 37.9171 95.625675 
C 38.512695 96.22127 39.32061 96.55592 40.162909 96.55592 
z
" clip-path="url(#p06126be0f3)" style="fill: #683d77; fill-opacity: 0.95; stroke: #000000; stroke-opacity: 0.95; stroke-width: 0.6"/>
    <path d="M 43.409455 83.04407 
C 44.329827 83.04407 45.212628 82.678402 45.86343 82.027601 
C 46.514231 81.376799 46.879899 80.493998 46.879899 79.573625 
C 46.879899 78.653253 46.514231 77.770452 45.86343 77.11965 
C 45.212628 76.468849 44.329827 76.103181 43.409455 76.103181 
C 42.489082 76.103181 41.606281 76.468849 40.955479 77.11965 
C 40.304678 77.770452 39.93901 78.653253 39.93901 79.573625 
C 39.93901 80.493998 40.304678 81.376799 40.955479 82.027601 
C 41.606281 82.678402 42.489082 83.04407 43.409455 83.04407 
z
" clip-path="url(#p06126be0f3)" style="fill: #683d77; fill-opacity: 0.95; stroke: #000000; stroke-opacity: 0.95; stroke-width: 0.6"/>
    <path d="M 46.656 78.309602 
C 47.602175 78.309602 48.509725 77.933682 49.178772 77.264635 
C 49.847819 76.595588 50.223739 75.688038 50.223739 74.741863 
C 50.223739 73.795688 49.847819 72.888138 49.178772 72.219091 
C 48.509725 71.550044 47.602175 71.174124 46.656 71.174124 
C 45.709825 71.174124 44.802275 71.550044 44.133228 72.219091 
C 43.464181 72.888138 43.088261 73.795688 43.088261 74.741863 
C 43.088261 75.688038 43.464181 76.595588 44.133228 77.264635 
C 44.802275 77.933682 45.709825 78.309602 46.656 78.309602 
z
" clip-path="url(#p06126be0f3)" style="fill: #683d77; fill-opacity: 0.95; stroke: #000000; stroke-opacity: 0.95; stroke-width: 0.6"/>
    <path d="M 49.902545 60.70179 
C 50.938958 60.70179 51.933061 60.290019 52.665915 59.557165 
C 53.398769 58.824311 53.81054 57.830208 53.81054 56.793796 
C 53.81054 55.757383 53.398769 54.76328 52.665915 54.030426 
C 51.933061 53.297572 50.938958 52.885801 49.902545 52.885801 
C 48.866133 52.885801 47.87203 53.297572 47.139176 54.030426 
C 46.406322 54.76328 45.994551 55.757383 45.994551 56.793796 
C 45.994551 57.830208 46.406322 58.824311 47.139176 59.557165 
C 47.87203 60.290019 48.866133 60.70179 49.902545 60.70179 
z
" clip-path="url(#p06126be0f3)" style="fill: #683d77; fill-opacity: 0.95; stroke: #000000; stroke-opacity: 0.95; stroke-width: 0.6"/>
    <path d="M 53.149091 44.763073 
C 54.26078 44.763073 55.327088 44.321394 56.113171 43.535311 
C 56.899254 42.749228 57.340933 41.68292 57.340933 40.571231 
C 57.340933 39.459542 56.899254 38.393234 56.113171 37.607151 
C 55.327088 36.821068 54.26078 36.379389 53.149091 36.379389 
C 52.037401 36.379389 50.971094 36.821068 50.185011 37.607151 
C 49.398928 38.393234 48.957249 39.459542 48.957249 40.571231 
C 48.957249 41.68292 49.398928 42.749228 50.185011 43.535311 
C 50.971094 44.321394 52.037401 44.763073 53.149091 44.763073 
z
" clip-path="url(#p06126be0f3)" style="fill: #683d77; fill-opacity: 0.95; stroke: #000000; stroke-opacity: 0.95; stroke-width: 0.6"/>
    <path d="M 56.395636 44.763073 
C 57.507326 44.763073 58.573633 44.321394 59.359716 43.535311 
C 60.145799 42.749228 60.587478 41.68292 60.587478 40.571231 
C 60.587478 39.459542 60.145799 38.393234 59.359716 37.607151 
C 58.573633 36.821068 57.507326 36.379389 56.395636 36.379389 
C 55.283947 36.379389 54.21764 36.821068 53.431557 37.607151 
C 52.645473 38.393234 52.203795 39.459542 52.203795 40.571231 
C 52.203795 41.68292 52.645473 42.749228 53.431557 43.535311 
C 54.21764 44.321394 55.283947 44.763073 56.395636 44.763073 
z
" clip-path="url(#p06126be0f3)" style="fill: #683d77; fill-opacity: 0.95; stroke: #000000; stroke-opacity: 0.95; stroke-width: 0.6"/>
    <path d="M 59.642182 31.523714 
C 60.812665 31.523714 61.935365 31.058677 62.763022 30.23102 
C 63.590678 29.403364 64.055716 28.280663 64.055716 27.11018 
C 64.055716 25.939697 63.590678 24.816997 62.763022 23.989341 
C 61.935365 23.161684 60.812665 22.696646 59.642182 22.696646 
C 58.471699 22.696646 57.348998 23.161684 56.521342 23.989341 
C 55.693686 24.816997 55.228648 25.939697 55.228648 27.11018 
C 55.228648 28.280663 55.693686 29.403364 56.521342 30.23102 
C 57.348998 31.058677 58.471699 31.523714 59.642182 31.523714 
z
" clip-path="url(#p06126be0f3)" style="fill: #683d77; fill-opacity: 0.95; stroke: #000000; stroke-opacity: 0.95; stroke-width: 0.6"/>
    <path d="M 62.888727 129.505631 
C 63.498898 129.505631 64.084159 129.263208 64.515615 128.831752 
C 64.947071 128.400297 65.189494 127.815035 65.189494 127.204864 
C 65.189494 126.594694 64.947071 126.009432 64.515615 125.577976 
C 64.084159 125.146521 63.498898 124.904097 62.888727 124.904097 
C 62.278557 124.904097 61.693295 125.146521 61.261839 125.577976 
C 60.830384 126.009432 60.58796 126.594694 60.58796 127.204864 
C 60.58796 127.815035 60.830384 128.400297 61.261839 128.831752 
C 61.693295 129.263208 62.278557 129.505631 62.888727 129.505631 
z
" clip-path="url(#p06126be0f3)" style="fill: #683d77; fill-opacity: 0.95; stroke: #000000; stroke-opacity: 0.95; stroke-width: 0.6"/>
    <path d="M 66.135273 107.007452 
C 66.911683 107.007452 67.656398 106.698981 68.205404 106.149976 
C 68.754409 105.600971 69.06288 104.856256 69.06288 104.079845 
C 69.06288 103.303435 68.754409 102.55872 68.205404 102.009714 
C 67.656398 101.460709 66.911683 101.152238 66.135273 101.152238 
C 65.358862 101.152238 64.614147 101.460709 64.065142 102.009714 
C 63.516137 102.55872 63.207666 103.303435 63.207666 104.079845 
C 63.207666 104.856256 63.516137 105.600971 64.065142 106.149976 
C 64.614147 106.698981 65.358862 107.007452 66.135273 107.007452 
z
" clip-path="url(#p06126be0f3)" style="fill: #683d77; fill-opacity: 0.95; stroke: #000000; stroke-opacity: 0.95; stroke-width: 0.6"/>
    <path d="M 69.381818 103.975004 
C 70.177921 103.975004 70.941525 103.658709 71.504455 103.095779 
C 72.067385 102.532849 72.38368 101.769245 72.38368 100.973142 
C 72.38368 100.177039 72.067385 99.413435 71.504455 98.850505 
C 70.941525 98.287575 70.177921 97.97128 69.381818 97.97128 
C 68.585715 97.97128 67.822111 98.287575 67.259181 98.850505 
C 66.696251 99.413435 66.379956 100.177039 66.379956 100.973142 
C 66.379956 101.769245 66.696251 102.532849 67.259181 103.095779 
C 67.822111 103.658709 68.585715 103.975004 69.381818 103.975004 
z
" clip-path="url(#p06126be0f3)" style="fill: #683d77; fill-opacity: 0.95; stroke: #000000; stroke-opacity: 0.95; stroke-width: 0.6"/>
    <path d="M 72.628364 95.206255 
C 73.478791 95.206255 74.294502 94.868376 74.895845 94.267033 
C 75.497188 93.66569 75.835067 92.849979 75.835067 91.999552 
C 75.835067 91.149124 75.497188 90.333414 74.895845 89.732071 
C 74.294502 89.130727 73.478791 88.792849 72.628364 88.792849 
C 71.777936 88.792849 70.962225 89.130727 70.360882 89.732071 
C 69.759539 90.333414 69.421661 91.149124 69.421661 91.999552 
C 69.421661 92.849979 69.759539 93.66569 70.360882 94.267033 
C 70.962225 94.868376 71.777936 95.206255 72.628364 95.206255 
z
" clip-path="url(#p06126be0f3)" style="fill: #683d77; fill-opacity: 0.95; stroke: #000000; stroke-opacity: 0.95; stroke-width: 0.6"/>
    <path d="M 75.874909 83.04407 
C 76.795282 83.04407 77.678082 82.678402 78.328884 82.027601 
C 78.979686 81.376799 79.345354 80.493998 79.345354 79.573625 
C 79.345354 78.653253 78.979686 77.770452 78.328884 77.11965 
C 77.678082 76.468849 76.795282 76.103181 75.874909 76.103181 
C 74.954536 76.103181 74.071736 76.468849 73.420934 77.11965 
C 72.770132 77.770452 72.404464 78.653253 72.404464 79.573625 
C 72.404464 80.493998 72.770132 81.376799 73.420934 82.027601 
C 74.071736 82.678402 74.954536 83.04407 75.874909 83.04407 
z
" clip-path="url(#p06126be0f3)" style="fill: #683d77; fill-opacity: 0.95; stroke: #000000; stroke-opacity: 0.95; stroke-width: 0.6"/>
    <path d="M 79.121455 53.92168 
C 80.190548 53.92168 81.215999 53.496925 81.971962 52.740961 
C 82.727925 51.984998 83.152681 50.959548 83.152681 49.890454 
C 83.152681 48.82136 82.727925 47.79591 81.971962 47.039946 
C 81.215999 46.283983 80.190548 45.859228 79.121455 45.859228 
C 78.052361 45.859228 77.02691 46.283983 76.270947 47.039946 
C 75.514984 47.79591 75.090228 48.82136 75.090228 49.890454 
C 75.090228 50.959548 75.514984 51.984998 76.270947 52.740961 
C 77.02691 53.496925 78.052361 53.92168 79.121455 53.92168 
z
" clip-path="url(#p06126be0f3)" style="fill: #683d77; fill-opacity: 0.95; stroke: #000000; stroke-opacity: 0.95; stroke-width: 0.6"/>
    <path d="M 82.368 55.447634 
C 83.429828 55.447634 84.448309 55.025765 85.199134 54.27494 
C 85.94996 53.524114 86.371828 52.505633 86.371828 51.443806 
C 86.371828 50.381978 85.94996 49.363497 85.199134 48.612672 
C 84.448309 47.861846 83.429828 47.439977 82.368 47.439977 
C 81.306172 47.439977 80.287691 47.861846 79.536866 48.612672 
C 78.78604 49.363497 78.364172 50.381978 78.364172 51.443806 
C 78.364172 52.505633 78.78604 53.524114 79.536866 54.27494 
C 80.287691 55.025765 81.306172 55.447634 82.368 55.447634 
z
" clip-path="url(#p06126be0f3)" style="fill: #683d77; fill-opacity: 0.95; stroke: #000000; stroke-opacity: 0.95; stroke-width: 0.6"/>
    <path d="M 85.614545 45.781098 
C 86.721583 45.781098 87.783427 45.341267 88.566221 44.558474 
C 89.349014 43.775681 89.788845 42.713836 89.788845 41.606799 
C 89.788845 40.499762 89.349014 39.437917 88.566221 38.655124 
C 87.783427 37.87233 86.721583 37.4325 85.614545 37.4325 
C 84.507508 37.4325 83.445664 37.87233 82.66287 38.655124 
C 81.880077 39.437917 81.440246 40.499762 81.440246 41.606799 
C 81.440246 42.713836 81.880077 43.775681 82.66287 44.558474 
C 83.445664 45.341267 84.507508 45.781098 85.614545 45.781098 
z
" clip-path="url(#p06126be0f3)" style="fill: #683d77; fill-opacity: 0.95; stroke: #000000; stroke-opacity: 0.95; stroke-width: 0.6"/>
    <path d="M 88.861091 34.580253 
C 90.01827 34.580253 91.12821 34.120501 91.946459 33.302252 
C 92.764708 32.484003 93.22446 31.374063 93.22446 30.216884 
C 93.22446 29.059705 92.764708 27.949765 91.946459 27.131516 
C 91.12821 26.313267 90.01827 25.853515 88.861091 25.853515 
C 87.703912 25.853515 86.593972 26.313267 85.775723 27.131516 
C 84.957474 27.949765 84.497722 29.059705 84.497722 30.216884 
C 84.497722 31.374063 84.957474 32.484003 85.775723 33.302252 
C 86.593972 34.120501 87.703912 34.580253 88.861091 34.580253 
z
" clip-path="url(#p06126be0f3)" style="fill: #683d77; fill-opacity: 0.95; stroke: #000000; stroke-opacity: 0.95; stroke-width: 0.6"/>
    <path d="M 92.107636 37.296251 
C 93.252862 37.296251 94.351336 36.841248 95.161133 36.031451 
C 95.97093 35.221654 96.425933 34.12318 96.425933 32.977954 
C 96.425933 31.832729 95.97093 30.734255 95.161133 29.924458 
C 94.351336 29.114661 93.252862 28.659658 92.107636 28.659658 
C 90.962411 28.659658 89.863937 29.114661 89.05414 29.924458 
C 88.244343 30.734255 87.78934 31.832729 87.78934 32.977954 
C 87.78934 34.12318 88.244343 35.221654 89.05414 36.031451 
C 89.863937 36.841248 90.962411 37.296251 92.107636 37.296251 
z
" clip-path="url(#p06126be0f3)" style="fill: #683d77; fill-opacity: 0.95; stroke: #000000; stroke-opacity: 0.95; stroke-width: 0.6"/>
    <path d="M 95.354182 105.322988 
C 96.141593 105.322988 96.896861 105.010146 97.453645 104.453362 
C 98.010429 103.896578 98.323271 103.141311 98.323271 102.353899 
C 98.323271 101.566487 98.010429 100.81122 97.453645 100.254436 
C 96.896861 99.697652 96.141593 99.38481 95.354182 99.38481 
C 94.56677 99.38481 93.811503 99.697652 93.254719 100.254436 
C 92.697935 100.81122 92.385093 101.566487 92.385093 102.353899 
C 92.385093 103.141311 92.697935 103.896578 93.254719 104.453362 
C 93.811503 105.010146 94.56677 105.322988 95.354182 105.322988 
z
" clip-path="url(#p06126be0f3)" style="fill: #683d77; fill-opacity: 0.95; stroke: #000000; stroke-opacity: 0.95; stroke-width: 0.6"/>
    <path d="M 98.600727 105.322988 
C 99.388139 105.322988 100.143406 105.010146 100.70019 104.453362 
C 101.256974 103.896578 101.569816 103.141311 101.569816 102.353899 
C 101.569816 101.566487 101.256974 100.81122 100.70019 100.254436 
C 100.143406 99.697652 99.388139 99.38481 98.600727 99.38481 
C 97.813316 99.38481 97.058048 99.697652 96.501264 100.254436 
C 95.94448 100.81122 95.631638 101.566487 95.631638 102.353899 
C 95.631638 103.141311 95.94448 103.896578 96.501264 104.453362 
C 97.058048 105.010146 97.813316 105.322988 98.600727 105.322988 
z
" clip-path="url(#p06126be0f3)" style="fill: #683d77; fill-opacity: 0.95; stroke: #000000; stroke-opacity: 0.95; stroke-width: 0.6"/>
    <path d="M 101.847273 89.80347 
C 102.729472 89.80347 103.575657 89.452969 104.199466 88.82916 
C 104.823274 88.205351 105.173776 87.359166 105.173776 86.476967 
C 105.173776 85.594768 104.823274 84.748583 104.199466 84.124774 
C 103.575657 83.500965 102.729472 83.150464 101.847273 83.150464 
C 100.965074 83.150464 100.118889 83.500965 99.49508 84.124774 
C 98.871271 84.748583 98.52077 85.594768 98.52077 86.476967 
C 98.52077 87.359166 98.871271 88.205351 99.49508 88.82916 
C 100.118889 89.452969 100.965074 89.80347 101.847273 89.80347 
z
" clip-path="url(#p06126be0f3)" style="fill: #683d77; fill-opacity: 0.95; stroke: #000000; stroke-opacity: 0.95; stroke-width: 0.6"/>
    <path d="M 105.093818 76.617773 
C 106.049042 76.617773 106.96527 76.238259 107.640715 75.562814 
C 108.31616 74.887369 108.695674 73.97114 108.695674 73.015917 
C 108.695674 72.060693 108.31616 71.144465 107.640715 70.46902 
C 106.96527 69.793575 106.049042 69.41406 105.093818 69.41406 
C 104.138595 69.41406 103.222366 69.793575 102.546921 70.46902 
C 101.871476 71.144465 101.491962 72.060693 101.491962 73.015917 
C 101.491962 73.97114 101.871476 74.887369 102.546921 75.562814 
C 103.222366 76.238259 104.138595 76.617773 105.093818 76.617773 
z
" clip-path="url(#p06126be0f3)" style="fill: #683d77; fill-opacity: 0.95; stroke: #000000; stroke-opacity: 0.95; stroke-width: 0.6"/>
    <path d="M 108.340364 77.632909 
C 109.290169 77.632909 110.2012 77.255548 110.872813 76.583934 
C 111.544427 75.912321 111.921788 75.001289 111.921788 74.051484 
C 111.921788 73.10168 111.544427 72.190648 110.872813 71.519035 
C 110.2012 70.847421 109.290169 70.47006 108.340364 70.47006 
C 107.390559 70.47006 106.479527 70.847421 105.807914 71.519035 
C 105.1363 72.190648 104.758939 73.10168 104.758939 74.051484 
C 104.758939 75.001289 105.1363 75.912321 105.807914 76.583934 
C 106.479527 77.255548 107.390559 77.632909 108.340364 77.632909 
z
" clip-path="url(#p06126be0f3)" style="fill: #683d77; fill-opacity: 0.95; stroke: #000000; stroke-opacity: 0.95; stroke-width: 0.6"/>
    <path d="M 111.586909 64.259559 
C 112.605745 64.259559 113.582989 63.854771 114.303415 63.134345 
C 115.023841 62.413919 115.428629 61.436675 115.428629 60.417839 
C 115.428629 59.399003 115.023841 58.421759 114.303415 57.701333 
C 113.582989 56.980908 112.605745 56.57612 111.586909 56.57612 
C 110.568073 56.57612 109.590829 56.980908 108.870403 57.701333 
C 108.149977 58.421759 107.745189 59.399003 107.745189 60.417839 
C 107.745189 61.436675 108.149977 62.413919 108.870403 63.134345 
C 109.590829 63.854771 110.568073 64.259559 111.586909 64.259559 
z
" clip-path="url(#p06126be0f3)" style="fill: #683d77; fill-opacity: 0.95; stroke: #000000; stroke-opacity: 0.95; stroke-width: 0.6"/>
    <path d="M 114.833455 49.003915 
C 115.92563 49.003915 116.973221 48.569989 117.745506 47.797704 
C 118.517791 47.025419 118.951717 45.977829 118.951717 44.885653 
C 118.951717 43.793477 118.517791 42.745887 117.745506 41.973602 
C 116.973221 41.201317 115.92563 40.767391 114.833455 40.767391 
C 113.741279 40.767391 112.693688 41.201317 111.921403 41.973602 
C 111.149118 42.745887 110.715192 43.793477 110.715192 44.885653 
C 110.715192 45.977829 111.149118 47.025419 111.921403 47.797704 
C 112.693688 48.569989 113.741279 49.003915 114.833455 49.003915 
z
" clip-path="url(#p06126be0f3)" style="fill: #683d77; fill-opacity: 0.95; stroke: #000000; stroke-opacity: 0.95; stroke-width: 0.6"/>
    <path d="M 118.08 41.87871 
C 119.204765 41.87871 120.283613 41.431837 121.078942 40.636508 
C 121.874271 39.841179 122.321144 38.76233 122.321144 37.637566 
C 122.321144 36.512801 121.874271 35.433953 121.078942 34.638624 
C 120.283613 33.843295 119.204765 33.396421 118.08 33.396421 
C 116.955235 33.396421 115.876387 33.843295 115.081058 34.638624 
C 114.285729 35.433953 113.838856 36.512801 113.838856 37.637566 
C 113.838856 38.76233 114.285729 39.841179 115.081058 40.636508 
C 115.876387 41.431837 116.955235 41.87871 118.08 41.87871 
z
" clip-path="url(#p06126be0f3)" style="fill: #683d77; fill-opacity: 0.95; stroke: #000000; stroke-opacity: 0.95; stroke-width: 0.6"/>
    <path d="M 121.326545 41.030131 
C 122.455128 41.030131 123.537638 40.581741 124.335666 39.783713 
C 125.133694 38.985685 125.582084 37.903175 125.582084 36.774593 
C 125.582084 35.646011 125.133694 34.5635 124.335666 33.765472 
C 123.537638 32.967444 122.455128 32.519054 121.326545 32.519054 
C 120.197963 32.519054 119.115453 32.967444 118.317425 33.765472 
C 117.519397 34.5635 117.071007 35.646011 117.071007 36.774593 
C 117.071007 37.903175 117.519397 38.985685 118.317425 39.783713 
C 119.115453 40.581741 120.197963 41.030131 121.326545 41.030131 
z
" clip-path="url(#p06126be0f3)" style="fill: #683d77; fill-opacity: 0.95; stroke: #000000; stroke-opacity: 0.95; stroke-width: 0.6"/>
    <path d="M 124.573091 112.729144 
C 125.310877 112.729144 126.018545 112.436018 126.540239 111.914324 
C 127.061933 111.39263 127.355059 110.684962 127.355059 109.947176 
C 127.355059 109.209389 127.061933 108.501721 126.540239 107.980027 
C 126.018545 107.458333 125.310877 107.165208 124.573091 107.165208 
C 123.835304 107.165208 123.127636 107.458333 122.605942 107.980027 
C 122.084249 108.501721 121.791123 109.209389 121.791123 109.947176 
C 121.791123 110.684962 122.084249 111.39263 122.605942 111.914324 
C 123.127636 112.436018 123.835304 112.729144 124.573091 112.729144 
z
" clip-path="url(#p06126be0f3)" style="fill: #683d77; fill-opacity: 0.95; stroke: #000000; stroke-opacity: 0.95; stroke-width: 0.6"/>
    <path d="M 127.819636 98.749189 
C 128.648553 98.749189 129.443632 98.419856 130.029764 97.833724 
C 130.615897 97.247591 130.945229 96.452512 130.945229 95.623596 
C 130.945229 94.794679 130.615897 93.9996 130.029764 93.413467 
C 129.443632 92.827335 128.648553 92.498003 127.819636 92.498003 
C 126.990719 92.498003 126.195641 92.827335 125.609508 93.413467 
C 125.023376 93.9996 124.694043 94.794679 124.694043 95.623596 
C 124.694043 96.452512 125.023376 97.247591 125.609508 97.833724 
C 126.195641 98.419856 126.990719 98.749189 127.819636 98.749189 
z
" clip-path="url(#p06126be0f3)" style="fill: #683d77; fill-opacity: 0.95; stroke: #000000; stroke-opacity: 0.95; stroke-width: 0.6"/>
    <path d="M 131.066182 76.279368 
C 132.023205 76.279368 132.941159 75.899139 133.617876 75.222422 
C 134.294594 74.545705 134.674823 73.62775 134.674823 72.670727 
C 134.674823 71.713705 134.294594 70.79575 133.617876 70.119033 
C 132.941159 69.442316 132.023205 69.062086 131.066182 69.062086 
C 130.109159 69.062086 129.191205 69.442316 128.514487 70.119033 
C 127.83777 70.79575 127.457541 71.713705 127.457541 72.670727 
C 127.457541 73.62775 127.83777 74.545705 128.514487 75.222422 
C 129.191205 75.899139 130.109159 76.279368 131.066182 76.279368 
z
" clip-path="url(#p06126be0f3)" style="fill: #683d77; fill-opacity: 0.95; stroke: #000000; stroke-opacity: 0.95; stroke-width: 0.6"/>
    <path d="M 134.312727 59.684955 
C 135.354107 59.684955 136.352976 59.27121 137.089343 58.534843 
C 137.82571 57.798476 138.239454 56.799608 138.239454 55.758228 
C 138.239454 54.716848 137.82571 53.717979 137.089343 52.981612 
C 136.352976 52.245246 135.354107 51.831501 134.312727 51.831501 
C 133.271347 51.831501 132.272479 52.245246 131.536112 52.981612 
C 130.799745 53.717979 130.386 54.716848 130.386 55.758228 
C 130.386 56.799608 130.799745 57.798476 131.536112 58.534843 
C 132.272479 59.27121 133.271347 59.684955 134.312727 59.684955 
z
" clip-path="url(#p06126be0f3)" style="fill: #683d77; fill-opacity: 0.95; stroke: #000000; stroke-opacity: 0.95; stroke-width: 0.6"/>
    <path d="M 137.559273 56.972963 
C 138.613786 56.972963 139.625252 56.554 140.370905 55.808346 
C 141.116559 55.062693 141.535522 54.051227 141.535522 52.996714 
C 141.535522 51.9422 141.116559 50.930735 140.370905 50.185081 
C 139.625252 49.439427 138.613786 49.020465 137.559273 49.020465 
C 136.504759 49.020465 135.493294 49.439427 134.74764 50.185081 
C 134.001986 50.930735 133.583024 51.9422 133.583024 52.996714 
C 133.583024 54.051227 134.001986 55.062693 134.74764 55.808346 
C 135.493294 56.554 136.504759 56.972963 137.559273 56.972963 
z
" clip-path="url(#p06126be0f3)" style="fill: #683d77; fill-opacity: 0.95; stroke: #000000; stroke-opacity: 0.95; stroke-width: 0.6"/>
    <path d="M 140.805818 55.786709 
C 141.866024 55.786709 142.88295 55.365485 143.632629 54.615806 
C 144.382308 53.866127 144.803532 52.849201 144.803532 51.788995 
C 144.803532 50.728789 144.382308 49.711863 143.632629 48.962184 
C 142.88295 48.212505 141.866024 47.791281 140.805818 47.791281 
C 139.745612 47.791281 138.728686 48.212505 137.979007 48.962184 
C 137.229328 49.711863 136.808104 50.728789 136.808104 51.788995 
C 136.808104 52.849201 137.229328 53.866127 137.979007 54.615806 
C 138.728686 55.365485 139.745612 55.786709 140.805818 55.786709 
z
" clip-path="url(#p06126be0f3)" style="fill: #683d77; fill-opacity: 0.95; stroke: #000000; stroke-opacity: 0.95; stroke-width: 0.6"/>
    <path d="M 144.052364 39.163524 
C 145.189297 39.163524 146.279817 38.711816 147.083751 37.907882 
C 147.887684 37.103949 148.339392 36.013429 148.339392 34.876495 
C 148.339392 33.739562 147.887684 32.649042 147.083751 31.845108 
C 146.279817 31.041175 145.189297 30.589467 144.052364 30.589467 
C 142.91543 30.589467 141.82491 31.041175 141.020977 31.845108 
C 140.217043 32.649042 139.765335 33.739562 139.765335 34.876495 
C 139.765335 36.013429 140.217043 37.103949 141.020977 37.907882 
C 141.82491 38.711816 142.91543 39.163524 144.052364 39.163524 
z
" clip-path="url(#p06126be0f3)" style="fill: #683d77; fill-opacity: 0.95; stroke: #000000; stroke-opacity: 0.95; stroke-width: 0.6"/>
    <path d="M 147.298909 131.512068 
C 147.891921 131.512068 148.460725 131.276462 148.880048 130.857139 
C 149.299371 130.437816 149.534977 129.869012 149.534977 129.276 
C 149.534977 128.682988 149.299371 128.114184 148.880048 127.694861 
C 148.460725 127.275538 147.891921 127.039932 147.298909 127.039932 
C 146.705897 127.039932 146.137093 127.275538 145.71777 127.694861 
C 145.298447 128.114184 145.062841 128.682988 145.062841 129.276 
C 145.062841 129.869012 145.298447 130.437816 145.71777 130.857139 
C 146.137093 131.276462 146.705897 131.512068 147.298909 131.512068 
z
" clip-path="url(#p06126be0f3)" style="fill: #683d77; fill-opacity: 0.95; stroke: #000000; stroke-opacity: 0.95; stroke-width: 0.6"/>
    <path d="M 150.545455 108.185791 
C 151.314073 108.185791 152.051315 107.880416 152.594811 107.33692 
C 153.138306 106.793425 153.443682 106.056183 153.443682 105.287564 
C 153.443682 104.518945 153.138306 103.781703 152.594811 103.238208 
C 152.051315 102.694712 151.314073 102.389337 150.545455 102.389337 
C 149.776836 102.389337 149.039594 102.694712 148.496098 103.238208 
C 147.952603 103.781703 147.647227 104.518945 147.647227 105.287564 
C 147.647227 106.056183 147.952603 106.793425 148.496098 107.33692 
C 149.039594 107.880416 149.776836 108.185791 150.545455 108.185791 
z
" clip-path="url(#p06126be0f3)" style="fill: #683d77; fill-opacity: 0.95; stroke: #000000; stroke-opacity: 0.95; stroke-width: 0.6"/>
    <path d="M 153.792 108.185791 
C 154.560619 108.185791 155.297861 107.880416 155.841356 107.33692 
C 156.384852 106.793425 156.690227 106.056183 156.690227 105.287564 
C 156.690227 104.518945 156.384852 103.781703 155.841356 103.238208 
C 155.297861 102.694712 154.560619 102.389337 153.792 102.389337 
C 153.023381 102.389337 152.286139 102.694712 151.742644 103.238208 
C 151.199148 103.781703 150.893773 104.518945 150.893773 105.287564 
C 150.893773 106.056183 151.199148 106.793425 151.742644 107.33692 
C 152.286139 107.880416 153.023381 108.185791 153.792 108.185791 
z
" clip-path="url(#p06126be0f3)" style="fill: #683d77; fill-opacity: 0.95; stroke: #000000; stroke-opacity: 0.95; stroke-width: 0.6"/>
    <path d="M 157.038545 100.941196 
C 157.853863 100.941196 158.635897 100.617267 159.212414 100.04075 
C 159.78893 99.464234 160.112859 98.6822 160.112859 97.866882 
C 160.112859 97.051565 159.78893 96.269531 159.212414 95.693014 
C 158.635897 95.116497 157.853863 94.792568 157.038545 94.792568 
C 156.223228 94.792568 155.441194 95.116497 154.864677 95.693014 
C 154.288161 96.269531 153.964232 97.051565 153.964232 97.866882 
C 153.964232 98.6822 154.288161 99.464234 154.864677 100.04075 
C 155.441194 100.617267 156.223228 100.941196 157.038545 100.941196 
z
" clip-path="url(#p06126be0f3)" style="fill: #683d77; fill-opacity: 0.95; stroke: #000000; stroke-opacity: 0.95; stroke-width: 0.6"/>
    <path d="M 160.285091 57.14248 
C 161.338788 57.14248 162.349471 56.723842 163.094548 55.978765 
C 163.839624 55.233688 164.258263 54.223006 164.258263 53.169308 
C 164.258263 52.115611 163.839624 51.104928 163.094548 50.359851 
C 162.349471 49.614775 161.338788 49.196136 160.285091 49.196136 
C 159.231393 49.196136 158.220711 49.614775 157.475634 50.359851 
C 156.730557 51.104928 156.311919 52.115611 156.311919 53.169308 
C 156.311919 54.223006 156.730557 55.233688 157.475634 55.978765 
C 158.220711 56.723842 159.231393 57.14248 160.285091 57.14248 
z
" clip-path="url(#p06126be0f3)" style="fill: #683d77; fill-opacity: 0.95; stroke: #000000; stroke-opacity: 0.95; stroke-width: 0.6"/>
    <path d="M 163.531636 42.72724 
C 164.652571 42.72724 165.727745 42.281888 166.520365 41.489268 
C 167.312986 40.696648 167.758338 39.621473 167.758338 38.500539 
C 167.758338 37.379605 167.312986 36.30443 166.520365 35.51181 
C 165.727745 34.71919 164.652571 34.273838 163.531636 34.273838 
C 162.410702 34.273838 161.335528 34.71919 160.542907 35.51181 
C 159.750287 36.30443 159.304935 37.379605 159.304935 38.500539 
C 159.304935 39.621473 159.750287 40.696648 160.542907 41.489268 
C 161.335528 42.281888 162.410702 42.72724 163.531636 42.72724 
z
" clip-path="url(#p06126be0f3)" style="fill: #683d77; fill-opacity: 0.95; stroke: #000000; stroke-opacity: 0.95; stroke-width: 0.6"/>
    <path d="M 166.778182 29.995669 
C 167.955258 29.995669 169.084283 29.528012 169.916602 28.695693 
C 170.748921 27.863374 171.216579 26.734349 171.216579 25.557272 
C 171.216579 24.380196 170.748921 23.251171 169.916602 22.418852 
C 169.084283 21.586533 167.955258 21.118876 166.778182 21.118876 
C 165.601105 21.118876 164.47208 21.586533 163.639761 22.418852 
C 162.807443 23.251171 162.339785 24.380196 162.339785 25.557272 
C 162.339785 26.734349 162.807443 27.863374 163.639761 28.695693 
C 164.47208 29.528012 165.601105 29.995669 166.778182 29.995669 
z
" clip-path="url(#p06126be0f3)" style="fill: #683d77; fill-opacity: 0.95; stroke: #000000; stroke-opacity: 0.95; stroke-width: 0.6"/>
    <path d="M 170.024727 115.419405 
C 170.743617 115.419405 171.43316 115.133787 171.941492 114.625455 
C 172.449824 114.117123 172.735442 113.42758 172.735442 112.70869 
C 172.735442 111.9898 172.449824 111.300257 171.941492 110.791925 
C 171.43316 110.283593 170.743617 109.997975 170.024727 109.997975 
C 169.305837 109.997975 168.616294 110.283593 168.107962 110.791925 
C 167.59963 111.300257 167.314012 111.9898 167.314012 112.70869 
C 167.314012 113.42758 167.59963 114.117123 168.107962 114.625455 
C 168.616294 115.133787 169.305837 115.419405 170.024727 115.419405 
z
" clip-path="url(#p06126be0f3)" style="fill: #683d77; fill-opacity: 0.95; stroke: #000000; stroke-opacity: 0.95; stroke-width: 0.6"/>
    <path d="M 173.271273 112.729144 
C 174.009059 112.729144 174.716727 112.436018 175.238421 111.914324 
C 175.760115 111.39263 176.053241 110.684962 176.053241 109.947176 
C 176.053241 109.209389 175.760115 108.501721 175.238421 107.980027 
C 174.716727 107.458333 174.009059 107.165208 173.271273 107.165208 
C 172.533486 107.165208 171.825818 107.458333 171.304124 107.980027 
C 170.78243 108.501721 170.489305 109.209389 170.489305 109.947176 
C 170.489305 110.684962 170.78243 111.39263 171.304124 111.914324 
C 171.825818 112.436018 172.533486 112.729144 173.271273 112.729144 
z
" clip-path="url(#p06126be0f3)" style="fill: #683d77; fill-opacity: 0.95; stroke: #000000; stroke-opacity: 0.95; stroke-width: 0.6"/>
    <path d="M 176.517818 88.451997 
C 177.407783 88.451997 178.261418 88.09841 178.890718 87.46911 
C 179.520019 86.83981 179.873605 85.986175 179.873605 85.09621 
C 179.873605 84.206245 179.520019 83.352611 178.890718 82.72331 
C 178.261418 82.09401 177.407783 81.740423 176.517818 81.740423 
C 175.627853 81.740423 174.774219 82.09401 174.144918 82.72331 
C 173.515618 83.352611 173.162031 84.206245 173.162031 85.09621 
C 173.162031 85.986175 173.515618 86.83981 174.144918 87.46911 
C 174.774219 88.09841 175.627853 88.451997 176.517818 88.451997 
z
" clip-path="url(#p06126be0f3)" style="fill: #683d77; fill-opacity: 0.95; stroke: #000000; stroke-opacity: 0.95; stroke-width: 0.6"/>
    <path d="M 179.764364 85.410701 
C 180.671557 85.410701 181.541717 85.050269 182.1832 84.408787 
C 182.824683 83.767304 183.185115 82.897144 183.185115 81.98995 
C 183.185115 81.082757 182.824683 80.212597 182.1832 79.571114 
C 181.541717 78.929631 180.671557 78.569199 179.764364 78.569199 
C 178.85717 78.569199 177.98701 78.929631 177.345527 79.571114 
C 176.704045 80.212597 176.343613 81.082757 176.343613 81.98995 
C 176.343613 82.897144 176.704045 83.767304 177.345527 84.408787 
C 177.98701 85.050269 178.85717 85.410701 179.764364 85.410701 
z
" clip-path="url(#p06126be0f3)" style="fill: #683d77; fill-opacity: 0.95; stroke: #000000; stroke-opacity: 0.95; stroke-width: 0.6"/>
    <path d="M 183.010909 82.199108 
C 183.935941 82.199108 184.82321 81.831589 185.477306 81.177493 
C 186.131402 80.523397 186.498921 79.636128 186.498921 78.711096 
C 186.498921 77.786064 186.131402 76.898795 185.477306 76.244699 
C 184.82321 75.590603 183.935941 75.223084 183.010909 75.223084 
C 182.085877 75.223084 181.198608 75.590603 180.544512 76.244699 
C 179.890416 76.898795 179.522897 77.786064 179.522897 78.711096 
C 179.522897 79.636128 179.890416 80.523397 180.544512 81.177493 
C 181.198608 81.831589 182.085877 82.199108 183.010909 82.199108 
z
" clip-path="url(#p06126be0f3)" style="fill: #683d77; fill-opacity: 0.95; stroke: #000000; stroke-opacity: 0.95; stroke-width: 0.6"/>
    <path d="M 186.257455 82.199108 
C 187.182486 82.199108 188.069755 81.831589 188.723852 81.177493 
C 189.377948 80.523397 189.745467 79.636128 189.745467 78.711096 
C 189.745467 77.786064 189.377948 76.898795 188.723852 76.244699 
C 188.069755 75.590603 187.182486 75.223084 186.257455 75.223084 
C 185.332423 75.223084 184.445154 75.590603 183.791058 76.244699 
C 183.136961 76.898795 182.769443 77.786064 182.769443 78.711096 
C 182.769443 79.636128 183.136961 80.523397 183.791058 81.177493 
C 184.445154 81.831589 185.332423 82.199108 186.257455 82.199108 
z
" clip-path="url(#p06126be0f3)" style="fill: #683d77; fill-opacity: 0.95; stroke: #000000; stroke-opacity: 0.95; stroke-width: 0.6"/>
    <path d="M 189.504 72.725801 
C 190.479713 72.725801 191.415595 72.338146 192.105528 71.648212 
C 192.795462 70.958279 193.183117 70.022397 193.183117 69.046684 
C 193.183117 68.070971 192.795462 67.135089 192.105528 66.445155 
C 191.415595 65.755222 190.479713 65.367567 189.504 65.367567 
C 188.528287 65.367567 187.592405 65.755222 186.902472 66.445155 
C 186.212538 67.135089 185.824883 68.070971 185.824883 69.046684 
C 185.824883 70.022397 186.212538 70.958279 186.902472 71.648212 
C 187.592405 72.338146 188.528287 72.725801 189.504 72.725801 
z
" clip-path="url(#p06126be0f3)" style="fill: #683d77; fill-opacity: 0.95; stroke: #000000; stroke-opacity: 0.95; stroke-width: 0.6"/>
    <path d="M 192.750545 55.278093 
C 193.813183 55.278093 194.83244 54.855902 195.583839 54.104504 
C 196.335237 53.353106 196.757427 52.333848 196.757427 51.271211 
C 196.757427 50.208574 196.335237 49.189316 195.583839 48.437918 
C 194.83244 47.68652 193.813183 47.264329 192.750545 47.264329 
C 191.687908 47.264329 190.66865 47.68652 189.917252 48.437918 
C 189.165854 49.189316 188.743664 50.208574 188.743664 51.271211 
C 188.743664 52.333848 189.165854 53.353106 189.917252 54.104504 
C 190.66865 54.855902 191.687908 55.278093 192.750545 55.278093 
z
" clip-path="url(#p06126be0f3)" style="fill: #683d77; fill-opacity: 0.95; stroke: #000000; stroke-opacity: 0.95; stroke-width: 0.6"/>
    <path d="M 195.997091 37.466012 
C 197.141565 37.466012 198.239319 37.011308 199.048584 36.202042 
C 199.85785 35.392777 200.312554 34.295023 200.312554 33.150549 
C 200.312554 32.006075 199.85785 30.908321 199.048584 30.099056 
C 198.239319 29.28979 197.141565 28.835086 195.997091 28.835086 
C 194.852617 28.835086 193.754863 29.28979 192.945598 30.099056 
C 192.136332 30.908321 191.681628 32.006075 191.681628 33.150549 
C 191.681628 34.295023 192.136332 35.392777 192.945598 36.202042 
C 193.754863 37.011308 194.852617 37.466012 195.997091 37.466012 
z
" clip-path="url(#p06126be0f3)" style="fill: #683d77; fill-opacity: 0.95; stroke: #000000; stroke-opacity: 0.95; stroke-width: 0.6"/>
    <path d="M 199.243636 27.908136 
C 200.429661 27.908136 201.567268 27.436923 202.405914 26.598278 
C 203.24456 25.759632 203.715772 24.622024 203.715772 23.436 
C 203.715772 22.249976 203.24456 21.112368 202.405914 20.273722 
C 201.567268 19.435077 200.429661 18.963864 199.243636 18.963864 
C 198.057612 18.963864 196.920005 19.435077 196.081359 20.273722 
C 195.242713 21.112368 194.7715 22.249976 194.7715 23.436 
C 194.7715 24.622024 195.242713 25.759632 196.081359 26.598278 
C 196.920005 27.436923 198.057612 27.908136 199.243636 27.908136 
z
" clip-path="url(#p06126be0f3)" style="fill: #683d77; fill-opacity: 0.95; stroke: #000000; stroke-opacity: 0.95; stroke-width: 0.6"/>
   </g>
   <g id="patch_3">
    <path d="M 28.8 134.568 
L 28.8 18.144 
" style="fill: none; stroke: #000000; stroke-linejoin: miter; stroke-linecap: square"/>
   </g>
   <g id="patch_4">
    <path d="M 207.36 134.568 
L 207.36 18.144 
" style="fill: none; stroke: #000000; stroke-linejoin: miter; stroke-linecap: square"/>
   </g>
   <g id="patch_5">
    <path d="M 28.8 134.568 
L 207.36 134.568 
" style="fill: none; stroke: #000000; stroke-linejoin: miter; stroke-linecap: square"/>
   </g>
   <g id="patch_6">
    <path d="M 28.8 18.144 
L 207.36 18.144 
" style="fill: none; stroke: #000000; stroke-linejoin: miter; stroke-linecap: square"/>
   </g>
   <g id="matplotlib.axis_1">
    <g id="xtick_1">
     <g id="line2d_2">
      <defs>
       <path id="m56330916b4" d="M 0 0 
L 0 3.5 
" style="stroke: #000000; stroke-width: 0.8"/>
      </defs>
      <g>
       <use xlink:href="#m56330916b4" x="33.669818" y="134.568" style="stroke: #000000; stroke-width: 0.8"/>
      </g>
     </g>
     <g id="text_1">
      <!-- 0 -->
      <g transform="translate(30.889349 148.725813) scale(0.1 -0.1)">
       <defs>
        <path id="ArialMT-30" d="M 266 2259 
Q 266 3072 433 3567 
Q 600 4063 929 4331 
Q 1259 4600 1759 4600 
Q 2128 4600 2406 4451 
Q 2684 4303 2865 4023 
Q 3047 3744 3150 3342 
Q 3253 2941 3253 2259 
Q 3253 1453 3087 958 
Q 2922 463 2592 192 
Q 2263 -78 1759 -78 
Q 1097 -78 719 397 
Q 266 969 266 2259 
z
M 844 2259 
Q 844 1131 1108 757 
Q 1372 384 1759 384 
Q 2147 384 2411 759 
Q 2675 1134 2675 2259 
Q 2675 3391 2411 3762 
Q 2147 4134 1753 4134 
Q 1366 4134 1134 3806 
Q 844 3388 844 2259 
z
" transform="scale(0.015625)"/>
       </defs>
       <use xlink:href="#ArialMT-30"/>
      </g>
     </g>
    </g>
    <g id="xtick_2">
     <g id="line2d_3">
      <g>
       <use xlink:href="#m56330916b4" x="98.600727" y="134.568" style="stroke: #000000; stroke-width: 0.8"/>
      </g>
     </g>
     <g id="text_2">
      <!-- 20 -->
      <g transform="translate(93.03979 148.725813) scale(0.1 -0.1)">
       <defs>
        <path id="ArialMT-32" d="M 3222 541 
L 3222 0 
L 194 0 
Q 188 203 259 391 
Q 375 700 629 1000 
Q 884 1300 1366 1694 
Q 2113 2306 2375 2664 
Q 2638 3022 2638 3341 
Q 2638 3675 2398 3904 
Q 2159 4134 1775 4134 
Q 1369 4134 1125 3890 
Q 881 3647 878 3216 
L 300 3275 
Q 359 3922 746 4261 
Q 1134 4600 1788 4600 
Q 2447 4600 2831 4234 
Q 3216 3869 3216 3328 
Q 3216 3053 3103 2787 
Q 2991 2522 2730 2228 
Q 2469 1934 1863 1422 
Q 1356 997 1212 845 
Q 1069 694 975 541 
L 3222 541 
z
" transform="scale(0.015625)"/>
       </defs>
       <use xlink:href="#ArialMT-32"/>
       <use xlink:href="#ArialMT-30" x="55.615234"/>
      </g>
     </g>
    </g>
    <g id="xtick_3">
     <g id="line2d_4">
      <g>
       <use xlink:href="#m56330916b4" x="163.531636" y="134.568" style="stroke: #000000; stroke-width: 0.8"/>
      </g>
     </g>
     <g id="text_3">
      <!-- 40 -->
      <g transform="translate(157.970699 148.725813) scale(0.1 -0.1)">
       <defs>
        <path id="ArialMT-34" d="M 2069 0 
L 2069 1097 
L 81 1097 
L 81 1613 
L 2172 4581 
L 2631 4581 
L 2631 1613 
L 3250 1613 
L 3250 1097 
L 2631 1097 
L 2631 0 
L 2069 0 
z
M 2069 1613 
L 2069 3678 
L 634 1613 
L 2069 1613 
z
" transform="scale(0.015625)"/>
       </defs>
       <use xlink:href="#ArialMT-34"/>
       <use xlink:href="#ArialMT-30" x="55.615234"/>
      </g>
     </g>
    </g>
    <g id="text_4">
     <!-- Time (s) -->
     <g transform="translate(94.496172 161.676906) scale(0.13 -0.13)">
      <defs>
       <path id="ArialMT-54" d="M 1659 0 
L 1659 4041 
L 150 4041 
L 150 4581 
L 3781 4581 
L 3781 4041 
L 2266 4041 
L 2266 0 
L 1659 0 
z
" transform="scale(0.015625)"/>
       <path id="ArialMT-69" d="M 425 3934 
L 425 4581 
L 988 4581 
L 988 3934 
L 425 3934 
z
M 425 0 
L 425 3319 
L 988 3319 
L 988 0 
L 425 0 
z
" transform="scale(0.015625)"/>
       <path id="ArialMT-6d" d="M 422 0 
L 422 3319 
L 925 3319 
L 925 2853 
Q 1081 3097 1340 3245 
Q 1600 3394 1931 3394 
Q 2300 3394 2536 3241 
Q 2772 3088 2869 2813 
Q 3263 3394 3894 3394 
Q 4388 3394 4653 3120 
Q 4919 2847 4919 2278 
L 4919 0 
L 4359 0 
L 4359 2091 
Q 4359 2428 4304 2576 
Q 4250 2725 4106 2815 
Q 3963 2906 3769 2906 
Q 3419 2906 3187 2673 
Q 2956 2441 2956 1928 
L 2956 0 
L 2394 0 
L 2394 2156 
Q 2394 2531 2256 2718 
Q 2119 2906 1806 2906 
Q 1569 2906 1367 2781 
Q 1166 2656 1075 2415 
Q 984 2175 984 1722 
L 984 0 
L 422 0 
z
" transform="scale(0.015625)"/>
       <path id="ArialMT-65" d="M 2694 1069 
L 3275 997 
Q 3138 488 2766 206 
Q 2394 -75 1816 -75 
Q 1088 -75 661 373 
Q 234 822 234 1631 
Q 234 2469 665 2931 
Q 1097 3394 1784 3394 
Q 2450 3394 2872 2941 
Q 3294 2488 3294 1666 
Q 3294 1616 3291 1516 
L 816 1516 
Q 847 969 1125 678 
Q 1403 388 1819 388 
Q 2128 388 2347 550 
Q 2566 713 2694 1069 
z
M 847 1978 
L 2700 1978 
Q 2663 2397 2488 2606 
Q 2219 2931 1791 2931 
Q 1403 2931 1139 2672 
Q 875 2413 847 1978 
z
" transform="scale(0.015625)"/>
       <path id="ArialMT-20" transform="scale(0.015625)"/>
       <path id="ArialMT-28" d="M 1497 -1347 
Q 1031 -759 709 28 
Q 388 816 388 1659 
Q 388 2403 628 3084 
Q 909 3875 1497 4659 
L 1900 4659 
Q 1522 4009 1400 3731 
Q 1209 3300 1100 2831 
Q 966 2247 966 1656 
Q 966 153 1900 -1347 
L 1497 -1347 
z
" transform="scale(0.015625)"/>
       <path id="ArialMT-73" d="M 197 991 
L 753 1078 
Q 800 744 1014 566 
Q 1228 388 1613 388 
Q 2000 388 2187 545 
Q 2375 703 2375 916 
Q 2375 1106 2209 1216 
Q 2094 1291 1634 1406 
Q 1016 1563 777 1677 
Q 538 1791 414 1992 
Q 291 2194 291 2438 
Q 291 2659 392 2848 
Q 494 3038 669 3163 
Q 800 3259 1026 3326 
Q 1253 3394 1513 3394 
Q 1903 3394 2198 3281 
Q 2494 3169 2634 2976 
Q 2775 2784 2828 2463 
L 2278 2388 
Q 2241 2644 2061 2787 
Q 1881 2931 1553 2931 
Q 1166 2931 1000 2803 
Q 834 2675 834 2503 
Q 834 2394 903 2306 
Q 972 2216 1119 2156 
Q 1203 2125 1616 2013 
Q 2213 1853 2448 1751 
Q 2684 1650 2818 1456 
Q 2953 1263 2953 975 
Q 2953 694 2789 445 
Q 2625 197 2315 61 
Q 2006 -75 1616 -75 
Q 969 -75 630 194 
Q 291 463 197 991 
z
" transform="scale(0.015625)"/>
       <path id="ArialMT-29" d="M 791 -1347 
L 388 -1347 
Q 1322 153 1322 1656 
Q 1322 2244 1188 2822 
Q 1081 3291 891 3722 
Q 769 4003 388 4659 
L 791 4659 
Q 1378 3875 1659 3084 
Q 1900 2403 1900 1659 
Q 1900 816 1576 28 
Q 1253 -759 791 -1347 
z
" transform="scale(0.015625)"/>
      </defs>
      <use xlink:href="#ArialMT-54"/>
      <use xlink:href="#ArialMT-69" x="57.333984"/>
      <use xlink:href="#ArialMT-6d" x="79.550781"/>
      <use xlink:href="#ArialMT-65" x="162.851562"/>
      <use xlink:href="#ArialMT-20" x="218.466797"/>
      <use xlink:href="#ArialMT-28" x="246.25"/>
      <use xlink:href="#ArialMT-73" x="279.550781"/>
      <use xlink:href="#ArialMT-29" x="329.550781"/>
     </g>
    </g>
   </g>
   <g id="matplotlib.axis_2">
    <g id="ytick_1">
     <g id="line2d_5">
      <defs>
       <path id="meffb46cde9" d="M 0 0 
L -3.5 0 
" style="stroke: #000000; stroke-width: 0.8"/>
      </defs>
      <g>
       <use xlink:href="#meffb46cde9" x="28.8" y="129.276" style="stroke: #000000; stroke-width: 0.8"/>
      </g>
     </g>
     <g id="text_5">
      <!-- 0 -->
      <g transform="translate(16.239062 132.854906) scale(0.1 -0.1)">
       <use xlink:href="#ArialMT-30"/>
      </g>
     </g>
    </g>
    <g id="ytick_2">
     <g id="line2d_6">
      <g>
       <use xlink:href="#meffb46cde9" x="28.8" y="84.907199" style="stroke: #000000; stroke-width: 0.8"/>
      </g>
     </g>
     <g id="text_6">
      <!-- 100 -->
      <g transform="translate(5.117188 88.486105) scale(0.1 -0.1)">
       <defs>
        <path id="ArialMT-31" d="M 2384 0 
L 1822 0 
L 1822 3584 
Q 1619 3391 1289 3197 
Q 959 3003 697 2906 
L 697 3450 
Q 1169 3672 1522 3987 
Q 1875 4303 2022 4600 
L 2384 4600 
L 2384 0 
z
" transform="scale(0.015625)"/>
       </defs>
       <use xlink:href="#ArialMT-31"/>
       <use xlink:href="#ArialMT-30" x="55.615234"/>
       <use xlink:href="#ArialMT-30" x="111.230469"/>
      </g>
     </g>
    </g>
    <g id="ytick_3">
     <g id="line2d_7">
      <g>
       <use xlink:href="#meffb46cde9" x="28.8" y="40.538398" style="stroke: #000000; stroke-width: 0.8"/>
      </g>
     </g>
     <g id="text_7">
      <!-- 200 -->
      <g transform="translate(5.117188 44.117304) scale(0.1 -0.1)">
       <use xlink:href="#ArialMT-32"/>
       <use xlink:href="#ArialMT-30" x="55.615234"/>
       <use xlink:href="#ArialMT-30" x="111.230469"/>
      </g>
     </g>
    </g>
    <g id="text_8">
     <!-- Cluster area ($\mu$m$^2$) -->
     <g transform="translate(0.757187 130.631) rotate(-90) scale(0.13 -0.13)">
      <defs>
       <path id="ArialMT-43" d="M 3763 1606 
L 4369 1453 
Q 4178 706 3683 314 
Q 3188 -78 2472 -78 
Q 1731 -78 1267 223 
Q 803 525 561 1097 
Q 319 1669 319 2325 
Q 319 3041 592 3573 
Q 866 4106 1370 4382 
Q 1875 4659 2481 4659 
Q 3169 4659 3637 4309 
Q 4106 3959 4291 3325 
L 3694 3184 
Q 3534 3684 3231 3912 
Q 2928 4141 2469 4141 
Q 1941 4141 1586 3887 
Q 1231 3634 1087 3207 
Q 944 2781 944 2328 
Q 944 1744 1114 1308 
Q 1284 872 1643 656 
Q 2003 441 2422 441 
Q 2931 441 3284 734 
Q 3638 1028 3763 1606 
z
" transform="scale(0.015625)"/>
       <path id="ArialMT-6c" d="M 409 0 
L 409 4581 
L 972 4581 
L 972 0 
L 409 0 
z
" transform="scale(0.015625)"/>
       <path id="ArialMT-75" d="M 2597 0 
L 2597 488 
Q 2209 -75 1544 -75 
Q 1250 -75 995 37 
Q 741 150 617 320 
Q 494 491 444 738 
Q 409 903 409 1263 
L 409 3319 
L 972 3319 
L 972 1478 
Q 972 1038 1006 884 
Q 1059 663 1231 536 
Q 1403 409 1656 409 
Q 1909 409 2131 539 
Q 2353 669 2445 892 
Q 2538 1116 2538 1541 
L 2538 3319 
L 3100 3319 
L 3100 0 
L 2597 0 
z
" transform="scale(0.015625)"/>
       <path id="ArialMT-74" d="M 1650 503 
L 1731 6 
Q 1494 -44 1306 -44 
Q 1000 -44 831 53 
Q 663 150 594 308 
Q 525 466 525 972 
L 525 2881 
L 113 2881 
L 113 3319 
L 525 3319 
L 525 4141 
L 1084 4478 
L 1084 3319 
L 1650 3319 
L 1650 2881 
L 1084 2881 
L 1084 941 
Q 1084 700 1114 631 
Q 1144 563 1211 522 
Q 1278 481 1403 481 
Q 1497 481 1650 503 
z
" transform="scale(0.015625)"/>
       <path id="ArialMT-72" d="M 416 0 
L 416 3319 
L 922 3319 
L 922 2816 
Q 1116 3169 1280 3281 
Q 1444 3394 1641 3394 
Q 1925 3394 2219 3213 
L 2025 2691 
Q 1819 2813 1613 2813 
Q 1428 2813 1281 2702 
Q 1134 2591 1072 2394 
Q 978 2094 978 1738 
L 978 0 
L 416 0 
z
" transform="scale(0.015625)"/>
       <path id="ArialMT-61" d="M 2588 409 
Q 2275 144 1986 34 
Q 1697 -75 1366 -75 
Q 819 -75 525 192 
Q 231 459 231 875 
Q 231 1119 342 1320 
Q 453 1522 633 1644 
Q 813 1766 1038 1828 
Q 1203 1872 1538 1913 
Q 2219 1994 2541 2106 
Q 2544 2222 2544 2253 
Q 2544 2597 2384 2738 
Q 2169 2928 1744 2928 
Q 1347 2928 1158 2789 
Q 969 2650 878 2297 
L 328 2372 
Q 403 2725 575 2942 
Q 747 3159 1072 3276 
Q 1397 3394 1825 3394 
Q 2250 3394 2515 3294 
Q 2781 3194 2906 3042 
Q 3031 2891 3081 2659 
Q 3109 2516 3109 2141 
L 3109 1391 
Q 3109 606 3145 398 
Q 3181 191 3288 0 
L 2700 0 
Q 2613 175 2588 409 
z
M 2541 1666 
Q 2234 1541 1622 1453 
Q 1275 1403 1131 1340 
Q 988 1278 909 1158 
Q 831 1038 831 891 
Q 831 666 1001 516 
Q 1172 366 1500 366 
Q 1825 366 2078 508 
Q 2331 650 2450 897 
Q 2541 1088 2541 1459 
L 2541 1666 
z
" transform="scale(0.015625)"/>
       <path id="DejaVuSans-Oblique-3bc" d="M -84 -1331 
L 856 3500 
L 1434 3500 
L 1009 1322 
Q 997 1256 987 1175 
Q 978 1094 978 1013 
Q 978 722 1161 565 
Q 1344 409 1684 409 
Q 2147 409 2431 671 
Q 2716 934 2816 1459 
L 3213 3500 
L 3788 3500 
L 3266 809 
Q 3253 750 3248 706 
Q 3244 663 3244 628 
Q 3244 531 3283 486 
Q 3322 441 3406 441 
Q 3438 441 3492 456 
Q 3547 472 3647 513 
L 3559 50 
Q 3422 -19 3297 -55 
Q 3172 -91 3053 -91 
Q 2847 -91 2730 40 
Q 2613 172 2613 403 
Q 2438 153 2195 31 
Q 1953 -91 1625 -91 
Q 1334 -91 1117 43 
Q 900 178 831 397 
L 494 -1331 
L -84 -1331 
z
" transform="scale(0.015625)"/>
       <path id="DejaVuSans-32" d="M 1228 531 
L 3431 531 
L 3431 0 
L 469 0 
L 469 531 
Q 828 903 1448 1529 
Q 2069 2156 2228 2338 
Q 2531 2678 2651 2914 
Q 2772 3150 2772 3378 
Q 2772 3750 2511 3984 
Q 2250 4219 1831 4219 
Q 1534 4219 1204 4116 
Q 875 4013 500 3803 
L 500 4441 
Q 881 4594 1212 4672 
Q 1544 4750 1819 4750 
Q 2544 4750 2975 4387 
Q 3406 4025 3406 3419 
Q 3406 3131 3298 2873 
Q 3191 2616 2906 2266 
Q 2828 2175 2409 1742 
Q 1991 1309 1228 531 
z
" transform="scale(0.015625)"/>
      </defs>
      <use xlink:href="#ArialMT-43" transform="translate(0 0.765625)"/>
      <use xlink:href="#ArialMT-6c" transform="translate(72.216797 0.765625)"/>
      <use xlink:href="#ArialMT-75" transform="translate(94.433594 0.765625)"/>
      <use xlink:href="#ArialMT-73" transform="translate(150.048828 0.765625)"/>
      <use xlink:href="#ArialMT-74" transform="translate(200.048828 0.765625)"/>
      <use xlink:href="#ArialMT-65" transform="translate(227.832031 0.765625)"/>
      <use xlink:href="#ArialMT-72" transform="translate(283.447266 0.765625)"/>
      <use xlink:href="#ArialMT-20" transform="translate(316.748047 0.765625)"/>
      <use xlink:href="#ArialMT-61" transform="translate(344.53125 0.765625)"/>
      <use xlink:href="#ArialMT-72" transform="translate(400.146484 0.765625)"/>
      <use xlink:href="#ArialMT-65" transform="translate(433.447266 0.765625)"/>
      <use xlink:href="#ArialMT-61" transform="translate(489.0625 0.765625)"/>
      <use xlink:href="#ArialMT-20" transform="translate(544.677734 0.765625)"/>
      <use xlink:href="#ArialMT-28" transform="translate(572.460938 0.765625)"/>
      <use xlink:href="#DejaVuSans-Oblique-3bc" transform="translate(605.761719 0.765625)"/>
      <use xlink:href="#ArialMT-6d" transform="translate(669.384766 0.765625)"/>
      <use xlink:href="#DejaVuSans-32" transform="translate(753.642578 39.046875) scale(0.7)"/>
      <use xlink:href="#ArialMT-29" transform="translate(800.913086 0.765625)"/>
     </g>
    </g>
   </g>
   <g id="legend_1">
    <g id="line2d_8">
     <path d="M 161.799062 30.251813 
L 167.199062 30.251813 
L 172.599063 30.251813 
" style="fill: none; stroke-dasharray: 4.44,1.92; stroke-dashoffset: 0; stroke: #000000; stroke-width: 1.2"/>
    </g>
    <g id="text_9">
     <!-- fit -->
     <g transform="translate(179.799062 33.401813) scale(0.1 -0.1)">
      <defs>
       <path id="ArialMT-66" d="M 556 0 
L 556 2881 
L 59 2881 
L 59 3319 
L 556 3319 
L 556 3672 
Q 556 4006 616 4169 
Q 697 4388 901 4523 
Q 1106 4659 1475 4659 
Q 1713 4659 2000 4603 
L 1916 4113 
Q 1741 4144 1584 4144 
Q 1328 4144 1222 4034 
Q 1116 3925 1116 3625 
L 1116 3319 
L 1763 3319 
L 1763 2881 
L 1116 2881 
L 1116 0 
L 556 0 
z
" transform="scale(0.015625)"/>
      </defs>
      <use xlink:href="#ArialMT-66"/>
      <use xlink:href="#ArialMT-69" x="27.783203"/>
      <use xlink:href="#ArialMT-74" x="50"/>
     </g>
    </g>
    <g id="PathCollection_3">
     <defs>
      <path id="md06da280b0" d="M 0 3.535534 
C 0.937635 3.535534 1.836992 3.163008 2.5 2.5 
C 3.163008 1.836992 3.535534 0.937635 3.535534 0 
C 3.535534 -0.937635 3.163008 -1.836992 2.5 -2.5 
C 1.836992 -3.163008 0.937635 -3.535534 0 -3.535534 
C -0.937635 -3.535534 -1.836992 -3.163008 -2.5 -2.5 
C -3.163008 -1.836992 -3.535534 -0.937635 -3.535534 0 
C -3.535534 0.937635 -3.163008 1.836992 -2.5 2.5 
C -1.836992 3.163008 -0.937635 3.535534 0 3.535534 
z
" style="stroke: #000000; stroke-opacity: 0.95; stroke-width: 0.6"/>
     </defs>
     <g>
      <use xlink:href="#md06da280b0" x="167.199062" y="44.684625" style="fill: #683d77; fill-opacity: 0.95; stroke: #000000; stroke-opacity: 0.95; stroke-width: 0.6"/>
     </g>
    </g>
    <g id="text_10">
     <!-- data -->
     <g transform="translate(179.799062 47.047125) scale(0.1 -0.1)">
      <defs>
       <path id="ArialMT-64" d="M 2575 0 
L 2575 419 
Q 2259 -75 1647 -75 
Q 1250 -75 917 144 
Q 584 363 401 755 
Q 219 1147 219 1656 
Q 219 2153 384 2558 
Q 550 2963 881 3178 
Q 1213 3394 1622 3394 
Q 1922 3394 2156 3267 
Q 2391 3141 2538 2938 
L 2538 4581 
L 3097 4581 
L 3097 0 
L 2575 0 
z
M 797 1656 
Q 797 1019 1065 703 
Q 1334 388 1700 388 
Q 2069 388 2326 689 
Q 2584 991 2584 1609 
Q 2584 2291 2321 2609 
Q 2059 2928 1675 2928 
Q 1300 2928 1048 2622 
Q 797 2316 797 1656 
z
" transform="scale(0.015625)"/>
      </defs>
      <use xlink:href="#ArialMT-64"/>
      <use xlink:href="#ArialMT-61" x="55.615234"/>
      <use xlink:href="#ArialMT-74" x="111.230469"/>
      <use xlink:href="#ArialMT-61" x="139.013672"/>
     </g>
    </g>
   </g>
  </g>
 </g>
 <defs>
  <clipPath id="p06126be0f3">
   <rect x="28.8" y="18.144" width="178.56" height="116.424"/>
  </clipPath>
 </defs>
</svg>
